<svg width="1600" height="80" viewBox="0 0 1600 80" fill="none" xmlns="http://www.w3.org/2000/svg">
<rect width="1600" height="80" fill="#1F1F1F"/>
<path d="M80 27.9688H94.3878L95.217 44.4229L105.915 27.9688H114.042L97.0211 51.9507H89.3294L86.7587 31.2669L80 27.9688Z" fill="#1CD4FF"/>
<path d="M115.659 27.9688L108.9 51.9507H116.198L121.92 31.0875L115.659 27.9688Z" fill="#1CD4FF"/>
<path d="M125.113 28.1837L127.601 51.9507H135.354L152.52 27.9688H144.311L133.53 44.5661L132.535 27.9688L125.113 28.1837Z" fill="#1CD4FF"/>
<path d="M141.74 51.9507L158.616 27.9688H166.535L169.894 51.9507H162.389L162.099 48.1152L153.724 48.0798L157.331 43.3375H161.56L160.772 34.5287L149.287 51.9507H141.74Z" fill="#1CD4FF"/>
<path d="M212.768 33.4417L221.351 28.0646H234.039C234.039 28.0646 240.963 28.4589 241.171 34.6623C241.378 40.8657 235.242 44.7351 231.966 44.9507C228.689 45.1663 223.963 45.1655 223.963 45.1655L224.045 44.6997L228.026 39.8954L230.68 39.7884C230.68 39.7884 232.96 39.609 233.665 36.6159C233.789 34.1956 231.468 33.6228 231.468 33.6228L212.768 33.4417Z" fill="#49D232"/>
<path d="M225.58 36.6143L221.35 51.76H213.846L218.407 36.6143H225.58Z" fill="#49D232"/>
<path d="M245.37 28.0646L238.57 51.76H254.105L258.529 46.1914L247.472 46.0956L252.723 28.0646H245.37Z" fill="#49D232"/>
<path d="M255.766 51.76L272.932 27.861H280.672L284.209 51.76H276.58L276.248 48.1031L267.79 48.1747L271.687 43.2176H275.668L274.922 34.4097L263.478 51.76H255.766Z" fill="#49D232"/>
<path d="M283.215 27.861H291.093L293.913 37.5637L301.707 28.0646L310 27.861L295.82 44.1871L293.83 51.76H286.366L288.937 43.2176L283.215 27.861Z" fill="#49D232"/>
<path d="M309.411 59.7312L248.542 59.1639L212.43 58.9233L202.111 39.4199L219.759 21.0831L242.165 21.3768L309.226 20.5939L242.082 19H221.764H206.755L197.136 29.4533L191.993 19H190.75H177.149H146.19L84.5195 20.1208L146.079 21.2416H178.31L187.516 39.0144L168.313 58.727L116.545 59.0521L84.5352 59.6193L116.613 60.893H166.203H181.142H181.959L192.574 49.1435L198.296 60.893H200.206L248.542 61L309.411 59.7312Z" fill="url(#paint0_linear_578_4925)"/>
<path d="M188.806 39.2244L178.769 19.8102H191.79L197.219 30.6369L206.983 19.8102H219.714L201.135 39.6267L212.135 60.0369H198.343L192.803 48.3751L182.075 60.4883H168.172L188.806 39.2244Z" fill="url(#paint1_radial_578_4925)"/>
<rect x="1220" y="19" width="69" height="42" rx="7" stroke="#1CD4FF" stroke-width="2"/>
<g clip-path="url(#clip0_578_4925)">
<path d="M1243.47 39.4717V36.2668H1240.14C1239.96 37.2124 1239.85 38.2816 1239.83 39.4717H1243.47Z" fill="white"/>
<path d="M1243.47 35.2103V31.0304C1242.24 31.3389 1241.05 32.7519 1240.38 35.2103H1243.47Z" fill="white"/>
<path d="M1238.77 40.5283H1235C1235.06 41.6354 1235.33 42.7059 1235.78 43.6979H1239.07C1238.9 42.722 1238.8 41.6605 1238.77 40.5283Z" fill="white"/>
<path d="M1235 39.4717H1238.77C1238.79 38.3261 1238.89 37.2524 1239.07 36.2668H1235.8C1235.34 37.2687 1235.06 38.3515 1235 39.4717Z" fill="white"/>
<path d="M1244.53 31.0348V35.2103H1247.61C1247.35 34.2897 1247.05 33.5971 1246.77 33.0914C1246.14 31.9608 1245.36 31.2496 1244.53 31.0348Z" fill="white"/>
<path d="M1243.47 40.5283H1239.83C1239.86 41.7605 1239.97 42.8098 1240.14 43.6979H1243.47L1243.47 40.5283Z" fill="white"/>
<path d="M1247.69 32.5799C1248.11 33.3338 1248.45 34.2174 1248.7 35.2103H1251.63C1251.27 34.646 1250.85 34.1167 1250.37 33.6321C1249.39 32.6501 1248.22 31.9224 1246.95 31.4808C1247.22 31.8024 1247.47 32.1691 1247.69 32.5799Z" fill="white"/>
<path d="M1248.17 39.4717C1248.14 38.223 1248.02 37.1624 1247.85 36.2668H1244.53V39.4717H1248.17Z" fill="white"/>
<path d="M1248.72 44.7545C1248.47 45.7686 1248.13 46.6697 1247.7 47.436C1247.48 47.8366 1247.24 48.195 1246.98 48.5103C1248.24 48.0678 1249.39 47.3433 1250.37 46.3679C1250.86 45.8733 1251.29 45.3319 1251.65 44.7545H1248.72Z" fill="white"/>
<path d="M1239.29 35.2103C1239.54 34.2106 1239.88 33.3215 1240.3 32.5642C1240.52 32.1634 1240.76 31.805 1241.02 31.4896C1239.76 31.932 1238.61 32.6566 1237.63 33.632C1237.15 34.1166 1236.72 34.6459 1236.37 35.2102L1239.29 35.2103Z" fill="white"/>
<path d="M1248.93 36.2668C1249.1 37.2525 1249.21 38.3257 1249.23 39.4717H1253C1252.94 38.3515 1252.67 37.2687 1252.21 36.2668H1248.93Z" fill="white"/>
<path d="M1240.31 47.4202C1239.88 46.6574 1239.54 45.7617 1239.29 44.7545H1236.35C1236.71 45.3319 1237.14 45.8733 1237.63 46.3679C1238.61 47.3498 1239.78 48.0775 1241.05 48.5191C1240.78 48.1976 1240.53 47.8309 1240.31 47.4202Z" fill="white"/>
<path d="M1244.53 40.5283V43.6979H1247.86C1248.04 42.761 1248.15 41.7036 1248.17 40.5283H1244.53Z" fill="white"/>
<path d="M1253 40.5283H1249.23C1249.21 41.6603 1249.11 42.722 1248.94 43.6979H1252.22C1252.67 42.7059 1252.94 41.6354 1253 40.5283Z" fill="white"/>
<path d="M1244.53 44.7545V48.9696C1245.77 48.6597 1246.96 47.2349 1247.62 44.7545H1244.53Z" fill="white"/>
<path d="M1243.47 48.9652V44.7545H1240.38C1240.64 45.6927 1240.95 46.3966 1241.23 46.9087C1241.86 48.0392 1242.64 48.7504 1243.47 48.9652Z" fill="white"/>
</g>
<path d="M1258.06 44V35.5449H1263.43V36.6816H1259.37V39.1484H1263.21V40.2383H1259.37V42.8633H1263.43V44H1258.06ZM1265.33 44V35.5449H1266.52L1271.18 42.1484L1270.28 41.6855H1270.95V35.5449H1272.23V44H1271.04L1266.37 37.4023L1267.27 37.8652H1266.6V44H1265.33Z" fill="white"/>
<rect x="1301" y="19" width="88" height="42" rx="7" stroke="#1CD4FF" stroke-width="2"/>
<path d="M1327.06 44V35.5449H1328.37V42.8633H1332.34V44H1327.06ZM1337.3 44.2051C1336.48 44.2051 1335.77 44.0254 1335.18 43.666C1334.59 43.3027 1334.14 42.7891 1333.82 42.125C1333.51 41.4609 1333.35 40.6777 1333.35 39.7754V39.7637C1333.35 38.8535 1333.51 38.0684 1333.83 37.4082C1334.15 36.748 1334.6 36.2383 1335.19 35.8789C1335.79 35.5195 1336.49 35.3398 1337.3 35.3398C1338.11 35.3398 1338.81 35.5195 1339.4 35.8789C1339.99 36.2383 1340.44 36.75 1340.76 37.4141C1341.08 38.0742 1341.24 38.8574 1341.24 39.7637V39.7754C1341.24 40.6777 1341.08 41.4609 1340.77 42.125C1340.45 42.7852 1339.99 43.2969 1339.4 43.6602C1338.81 44.0234 1338.11 44.2051 1337.3 44.2051ZM1337.3 43.0391C1337.83 43.0391 1338.29 42.9043 1338.68 42.6348C1339.07 42.3652 1339.37 41.9863 1339.58 41.498C1339.79 41.0059 1339.9 40.4316 1339.9 39.7754V39.7637C1339.9 39.0996 1339.79 38.5234 1339.58 38.0352C1339.37 37.5469 1339.07 37.1699 1338.68 36.9043C1338.29 36.6387 1337.83 36.5059 1337.3 36.5059C1336.77 36.5059 1336.3 36.6387 1335.91 36.9043C1335.53 37.1699 1335.23 37.5469 1335.01 38.0352C1334.8 38.5234 1334.69 39.0996 1334.69 39.7637V39.7754C1334.69 40.4316 1334.79 41.0059 1335 41.498C1335.21 41.9863 1335.51 42.3652 1335.9 42.6348C1336.29 42.9043 1336.75 43.0391 1337.3 43.0391ZM1346.59 44.2051C1345.98 44.2051 1345.44 44.1035 1344.96 43.9004C1344.48 43.6934 1344.07 43.3965 1343.73 43.0098C1343.39 42.623 1343.13 42.1582 1342.95 41.6152C1342.77 41.0684 1342.68 40.4551 1342.68 39.7754V39.7637C1342.68 38.8652 1342.84 38.0859 1343.16 37.4258C1343.48 36.7617 1343.93 36.248 1344.52 35.8848C1345.1 35.5215 1345.79 35.3398 1346.57 35.3398C1347.21 35.3398 1347.79 35.4531 1348.29 35.6797C1348.79 35.9062 1349.21 36.2246 1349.53 36.6348C1349.86 37.041 1350.07 37.5176 1350.17 38.0645L1350.18 38.123H1348.86L1348.84 38.0645C1348.69 37.5645 1348.42 37.1797 1348.03 36.9102C1347.63 36.6406 1347.15 36.5059 1346.57 36.5059C1346.05 36.5059 1345.6 36.6387 1345.22 36.9043C1344.84 37.1699 1344.54 37.5469 1344.33 38.0352C1344.12 38.5195 1344.02 39.0938 1344.02 39.7578V39.7695C1344.02 40.2734 1344.08 40.7266 1344.19 41.1289C1344.31 41.5312 1344.49 41.875 1344.71 42.1602C1344.94 42.4414 1345.21 42.6582 1345.53 42.8105C1345.85 42.9629 1346.2 43.0391 1346.6 43.0391C1347.06 43.0391 1347.47 42.9492 1347.81 42.7695C1348.17 42.5859 1348.44 42.332 1348.63 42.0078C1348.83 41.6836 1348.93 41.3047 1348.93 40.8711L1348.94 40.6836H1346.77V39.623H1350.24V40.6719C1350.24 41.207 1350.15 41.6914 1349.98 42.125C1349.81 42.5586 1349.56 42.9316 1349.24 43.2441C1348.92 43.5527 1348.54 43.791 1348.09 43.959C1347.64 44.123 1347.14 44.2051 1346.59 44.2051ZM1352.04 44V35.5449H1353.36V44H1352.04ZM1355.48 44V35.5449H1356.67L1361.33 42.1484L1360.44 41.6855H1361.1V35.5449H1362.38V44H1361.19L1356.52 37.4023L1357.42 37.8652H1356.76V44H1355.48Z" fill="white"/>
<rect x="1398" y="18" width="122" height="44" rx="8" fill="#1CD4FF"/>
<path d="M1430.56 44V35.5449H1433.89C1434.47 35.5449 1434.97 35.6523 1435.39 35.8672C1435.82 36.0781 1436.14 36.377 1436.37 36.7637C1436.6 37.1465 1436.71 37.5996 1436.71 38.123V38.1348C1436.71 38.7051 1436.57 39.207 1436.28 39.6406C1435.99 40.0703 1435.59 40.373 1435.07 40.5488L1436.96 44H1435.45L1433.72 40.748C1433.71 40.748 1433.7 40.748 1433.69 40.748C1433.68 40.748 1433.67 40.748 1433.65 40.748H1431.87V44H1430.56ZM1431.87 39.6816H1433.77C1434.27 39.6816 1434.66 39.5508 1434.94 39.2891C1435.21 39.0234 1435.35 38.6504 1435.35 38.1699V38.1582C1435.35 37.6895 1435.21 37.3203 1434.92 37.0508C1434.63 36.7812 1434.24 36.6465 1433.72 36.6465H1431.87V39.6816ZM1438.59 44V35.5449H1443.96V36.6816H1439.9V39.1484H1443.74V40.2383H1439.9V42.8633H1443.96V44H1438.59ZM1449.42 44.2051C1448.82 44.2051 1448.27 44.1035 1447.79 43.9004C1447.31 43.6934 1446.9 43.3965 1446.56 43.0098C1446.22 42.623 1445.96 42.1582 1445.78 41.6152C1445.6 41.0684 1445.51 40.4551 1445.51 39.7754V39.7637C1445.51 38.8652 1445.67 38.0859 1445.99 37.4258C1446.31 36.7617 1446.76 36.248 1447.35 35.8848C1447.93 35.5215 1448.62 35.3398 1449.4 35.3398C1450.04 35.3398 1450.62 35.4531 1451.12 35.6797C1451.62 35.9062 1452.04 36.2246 1452.36 36.6348C1452.69 37.041 1452.9 37.5176 1453 38.0645L1453.01 38.123H1451.69L1451.67 38.0645C1451.52 37.5645 1451.25 37.1797 1450.86 36.9102C1450.47 36.6406 1449.98 36.5059 1449.4 36.5059C1448.88 36.5059 1448.43 36.6387 1448.05 36.9043C1447.67 37.1699 1447.37 37.5469 1447.16 38.0352C1446.95 38.5195 1446.85 39.0938 1446.85 39.7578V39.7695C1446.85 40.2734 1446.91 40.7266 1447.03 41.1289C1447.15 41.5312 1447.32 41.875 1447.55 42.1602C1447.77 42.4414 1448.04 42.6582 1448.36 42.8105C1448.68 42.9629 1449.04 43.0391 1449.43 43.0391C1449.89 43.0391 1450.3 42.9492 1450.65 42.7695C1451 42.5859 1451.27 42.332 1451.47 42.0078C1451.66 41.6836 1451.76 41.3047 1451.77 40.8711L1451.77 40.6836H1449.6V39.623H1453.07V40.6719C1453.07 41.207 1452.99 41.6914 1452.81 42.125C1452.64 42.5586 1452.4 42.9316 1452.08 43.2441C1451.76 43.5527 1451.37 43.791 1450.92 43.959C1450.47 44.123 1449.97 44.2051 1449.42 44.2051ZM1454.88 44V35.5449H1456.19V44H1454.88ZM1461.17 44.2051C1460.53 44.2051 1459.98 44.1055 1459.51 43.9062C1459.03 43.7031 1458.66 43.4219 1458.39 43.0625C1458.11 42.7031 1457.96 42.2871 1457.92 41.8145L1457.91 41.7383H1459.21L1459.21 41.8027C1459.24 42.0566 1459.34 42.2773 1459.51 42.4648C1459.69 42.6523 1459.92 42.7988 1460.21 42.9043C1460.51 43.0098 1460.85 43.0625 1461.23 43.0625C1461.58 43.0625 1461.9 43.0059 1462.18 42.8926C1462.46 42.7793 1462.67 42.623 1462.83 42.4238C1462.99 42.2246 1463.07 41.9961 1463.07 41.7383V41.7324C1463.07 41.4082 1462.95 41.1387 1462.7 40.9238C1462.45 40.709 1462.05 40.541 1461.49 40.4199L1460.57 40.2266C1459.71 40.043 1459.09 39.752 1458.7 39.3535C1458.31 38.9512 1458.11 38.4375 1458.11 37.8125V37.8066C1458.12 37.3184 1458.25 36.8887 1458.5 36.5176C1458.77 36.1465 1459.13 35.8574 1459.59 35.6504C1460.05 35.4434 1460.58 35.3398 1461.18 35.3398C1461.77 35.3398 1462.29 35.4434 1462.74 35.6504C1463.19 35.8535 1463.54 36.1309 1463.8 36.4824C1464.06 36.834 1464.21 37.2305 1464.24 37.6719L1464.25 37.748H1462.96L1462.95 37.6719C1462.92 37.4414 1462.82 37.2363 1462.66 37.0566C1462.51 36.877 1462.31 36.7363 1462.05 36.6348C1461.79 36.5293 1461.5 36.4785 1461.16 36.4824C1460.83 36.4824 1460.54 36.5332 1460.28 36.6348C1460.02 36.7324 1459.82 36.875 1459.66 37.0625C1459.52 37.25 1459.44 37.4766 1459.44 37.7422V37.748C1459.44 38.0605 1459.56 38.3223 1459.8 38.5332C1460.04 38.7402 1460.43 38.9023 1460.98 39.0195L1461.9 39.2246C1462.49 39.3496 1462.97 39.5156 1463.34 39.7227C1463.71 39.9297 1463.97 40.1855 1464.14 40.4902C1464.31 40.791 1464.4 41.1504 1464.4 41.5684V41.5742C1464.4 42.1133 1464.27 42.5801 1464 42.9746C1463.74 43.3652 1463.37 43.668 1462.88 43.8828C1462.4 44.0977 1461.83 44.2051 1461.17 44.2051ZM1468.27 44V36.6816H1465.61V35.5449H1472.24V36.6816H1469.58V44H1468.27ZM1473.85 44V35.5449H1479.22V36.6816H1475.16V39.1484H1479V40.2383H1475.16V42.8633H1479.22V44H1473.85ZM1481.12 44V35.5449H1484.45C1485.03 35.5449 1485.53 35.6523 1485.95 35.8672C1486.37 36.0781 1486.7 36.377 1486.92 36.7637C1487.15 37.1465 1487.27 37.5996 1487.27 38.123V38.1348C1487.27 38.7051 1487.12 39.207 1486.83 39.6406C1486.54 40.0703 1486.14 40.373 1485.63 40.5488L1487.52 44H1486L1484.28 40.748C1484.27 40.748 1484.26 40.748 1484.24 40.748C1484.23 40.748 1484.22 40.748 1484.21 40.748H1482.43V44H1481.12ZM1482.43 39.6816H1484.32C1484.82 39.6816 1485.21 39.5508 1485.49 39.2891C1485.77 39.0234 1485.91 38.6504 1485.91 38.1699V38.1582C1485.91 37.6895 1485.76 37.3203 1485.47 37.0508C1485.19 36.7812 1484.79 36.6465 1484.28 36.6465H1482.43V39.6816Z" fill="#131313"/>
<path fill-rule="evenodd" clip-rule="evenodd" d="M530.669 40.8604C530.201 40.0322 529.912 39.0905 529.852 38.0873H532.186C532.077 39.2097 531.508 40.1981 530.669 40.8604ZM532.97 38.0873H535.897V40.9962C535.013 40.7211 534.035 40.7236 533.1 41.067C532.495 41.289 531.969 41.6311 531.539 42.0565C531.382 41.8853 531.234 41.7056 531.095 41.5182C532.147 40.7132 532.857 39.4841 532.97 38.0873ZM532.186 37.3063H529.852C529.912 36.3031 530.201 35.3615 530.669 34.5333C531.508 35.1956 532.077 36.1839 532.186 37.3063ZM531.095 33.8754C532.197 32.3813 533.929 31.3791 535.897 31.2613V37.3063H532.97C532.857 35.9096 532.147 34.6804 531.095 33.8754ZM536.678 31.2613C538.645 31.3791 540.377 32.3813 541.479 33.8754C540.427 34.6804 539.717 35.9096 539.604 37.3063H536.678V31.2613ZM536.678 38.0873H539.604C539.641 38.5375 539.739 38.9703 539.891 39.377C539.63 39.5842 539.378 39.8089 539.135 40.0513C538.528 40.6584 538.031 41.329 537.646 42.0347C537.356 41.7532 537.029 41.5149 536.678 41.325V38.0873ZM541.905 34.5333C542.373 35.3615 542.663 36.3031 542.723 37.3063H540.389C540.497 36.1839 541.066 35.1956 541.905 34.5333ZM540.389 38.0873H542.147C541.6 38.296 541.064 38.5671 540.553 38.9001C540.471 38.6395 540.416 38.3676 540.389 38.0873Z" fill="white"/>
<path fill-rule="evenodd" clip-rule="evenodd" d="M547.009 41.9669C546.722 43.3418 546.013 44.6962 544.895 45.8137C543.778 46.9312 542.423 47.6406 541.048 47.9273L538.918 45.7968C539.02 45.1044 538.958 44.3777 538.702 43.6746C538.701 43.6693 538.699 43.664 538.697 43.6587C538.566 43.3033 538.394 42.9751 538.188 42.6776C538.556 41.9369 539.056 41.2327 539.685 40.6036C539.862 40.4269 540.044 40.2604 540.232 40.1042C540.436 39.9341 540.646 39.7762 540.862 39.6306C541.43 39.2459 542.032 38.9465 542.649 38.7337C542.941 38.633 543.236 38.5516 543.532 38.4899L547.009 41.9669ZM544.504 38.3578C545.311 38.3069 546.107 38.4032 546.849 38.6498C547.095 39.3915 547.192 40.1877 547.141 40.9945L544.504 38.3578ZM544.323 41.7277L544.52 41.5309C544.672 41.3785 544.672 41.1311 544.52 40.9787C544.368 40.8263 544.12 40.8263 543.968 40.9787L543.771 41.1754L543.623 41.0279C543.471 40.8755 543.224 40.8755 543.071 41.0279C542.919 41.1803 542.919 41.4278 543.071 41.5802L543.219 41.7277L542.784 42.1627L542.636 42.0152C542.484 41.8628 542.236 41.8628 542.084 42.0152C541.932 42.1676 541.932 42.4151 542.084 42.5675L542.231 42.715L541.796 43.15L541.649 43.0025C541.496 42.8501 541.249 42.8501 541.097 43.0025C540.944 43.1549 540.944 43.4024 541.097 43.5548L541.244 43.7023L540.809 44.1373L540.662 43.9898C540.509 43.8374 540.262 43.8374 540.109 43.9898C539.957 44.1422 539.957 44.3897 540.109 44.5421L540.257 44.6896L540.06 44.8863C539.908 45.0387 539.908 45.2861 540.06 45.4385C540.212 45.5909 540.46 45.5909 540.612 45.4385L540.809 45.2418L540.957 45.3893C541.109 45.5417 541.356 45.5417 541.509 45.3893C541.661 45.2369 541.661 44.9894 541.509 44.837L541.361 44.6896L541.796 44.2545L541.944 44.402C542.096 44.5544 542.344 44.5544 542.496 44.402C542.648 44.2496 542.648 44.0021 542.496 43.8497L542.349 43.7023L542.784 43.2672L542.931 43.4147C543.084 43.5671 543.331 43.5671 543.483 43.4147C543.636 43.2623 543.636 43.0148 543.483 42.8624L543.336 42.715L543.771 42.2799L543.918 42.4274C544.071 42.5798 544.318 42.5798 544.471 42.4274C544.623 42.275 544.623 42.0275 544.471 41.8751L544.323 41.7277ZM540.076 48.0594C539.377 48.1035 538.686 48.0371 538.031 47.8582C538.312 47.5001 538.535 47.1006 538.692 46.6758L540.076 48.0594Z" fill="white"/>
<path fill-rule="evenodd" clip-rule="evenodd" d="M532.315 47.9187C531.843 47.5285 531.466 47.0123 531.24 46.3969C531.014 45.7815 530.968 45.1436 531.074 44.541C531.52 44.9319 531.886 45.4551 532.114 46.0757C532.342 46.6964 532.402 47.3322 532.315 47.9187ZM531.318 43.7349C531.695 42.8683 532.411 42.1512 533.367 41.8001C534.218 41.4878 535.111 41.5189 535.895 41.8228C535.992 41.8606 536.088 41.9026 536.182 41.9488C536.021 42.6348 536.029 43.392 536.236 44.1438C536.271 44.2688 536.311 44.3938 536.356 44.5181C536.677 45.3903 537.225 46.1012 537.886 46.5898C537.509 47.4564 536.793 48.1735 535.837 48.5246C534.88 48.8757 533.87 48.7928 533.022 48.3759C533.209 47.5758 533.168 46.6787 532.847 45.8065C532.527 44.9344 531.978 44.2235 531.318 43.7349ZM536.889 42.4059C537.361 42.7962 537.738 43.3124 537.964 43.9278C538.19 44.5432 538.236 45.1811 538.129 45.7837C537.684 45.3928 537.317 44.8696 537.09 44.249C536.862 43.6283 536.802 42.9925 536.889 42.4059Z" fill="white"/>
<path d="M560.362 46.3076C559.407 46.3076 558.575 46.1553 557.866 45.8506C557.157 45.5459 556.598 45.127 556.188 44.5938C555.777 44.0547 555.543 43.4277 555.484 42.7129L555.476 42.6074H557.418L557.427 42.6953C557.468 43.082 557.617 43.416 557.875 43.6973C558.139 43.9785 558.49 44.1982 558.93 44.3564C559.375 44.5088 559.882 44.585 560.45 44.585C560.989 44.585 561.464 44.5029 561.874 44.3389C562.29 44.1689 562.615 43.9346 562.85 43.6357C563.09 43.3369 563.21 42.9941 563.21 42.6074V42.5986C563.21 42.1064 563.025 41.7021 562.656 41.3857C562.287 41.0635 561.684 40.8115 560.846 40.6299L559.457 40.3398C558.174 40.0586 557.239 39.6191 556.653 39.0215C556.067 38.4238 555.774 37.6592 555.774 36.7275V36.7188C555.78 35.9863 555.977 35.3418 556.363 34.7852C556.756 34.2285 557.298 33.7949 557.989 33.4844C558.681 33.168 559.475 33.0098 560.371 33.0098C561.268 33.0098 562.05 33.165 562.718 33.4756C563.392 33.7803 563.922 34.1963 564.309 34.7236C564.701 35.251 564.921 35.8457 564.968 36.5078L564.977 36.6309H563.052L563.034 36.5166C562.981 36.165 562.838 35.8574 562.604 35.5938C562.375 35.3242 562.067 35.1133 561.681 34.9609C561.3 34.8027 560.854 34.7266 560.345 34.7324C559.853 34.7324 559.413 34.8086 559.026 34.9609C558.64 35.1074 558.332 35.3213 558.104 35.6025C557.881 35.8779 557.77 36.2148 557.77 36.6133V36.6221C557.77 37.0967 557.948 37.4922 558.306 37.8086C558.669 38.1191 559.258 38.3594 560.072 38.5293L561.461 38.8369C562.346 39.0244 563.063 39.2734 563.614 39.584C564.165 39.8945 564.566 40.2783 564.818 40.7354C565.076 41.1865 565.205 41.7285 565.205 42.3613V42.3701C565.205 43.1729 565.006 43.8701 564.607 44.4619C564.215 45.0479 563.655 45.502 562.929 45.8242C562.208 46.1465 561.353 46.3076 560.362 46.3076ZM567.543 49.1729V36.4639H569.45V37.9756H569.591C569.778 37.624 570.016 37.3252 570.303 37.0791C570.59 36.8271 570.921 36.6367 571.296 36.5078C571.671 36.373 572.081 36.3057 572.526 36.3057C573.329 36.3057 574.026 36.5078 574.618 36.9121C575.21 37.3164 575.667 37.8877 575.989 38.626C576.312 39.3584 576.473 40.2256 576.473 41.2275V41.2451C576.473 42.2471 576.312 43.1172 575.989 43.8555C575.667 44.5879 575.21 45.1562 574.618 45.5605C574.032 45.9648 573.335 46.167 572.526 46.167C572.087 46.167 571.677 46.0996 571.296 45.9648C570.915 45.8242 570.578 45.6279 570.285 45.376C569.998 45.124 569.767 44.8281 569.591 44.4883H569.45V49.1729H567.543ZM571.981 44.5234C572.515 44.5234 572.969 44.3916 573.344 44.1279C573.725 43.8643 574.018 43.4863 574.223 42.9941C574.428 42.502 574.53 41.9189 574.53 41.2451V41.2275C574.53 40.542 574.428 39.9561 574.223 39.4697C574.018 38.9775 573.725 38.5996 573.344 38.3359C572.969 38.0723 572.515 37.9404 571.981 37.9404C571.454 37.9404 570.997 38.0723 570.61 38.3359C570.229 38.5996 569.937 38.9775 569.731 39.4697C569.526 39.9561 569.424 40.5391 569.424 41.2188V41.2363C569.424 41.9102 569.526 42.4961 569.731 42.9941C569.937 43.4863 570.229 43.8643 570.61 44.1279C570.997 44.3916 571.454 44.5234 571.981 44.5234ZM582.757 46.1846C581.831 46.1846 581.031 45.9854 580.357 45.5869C579.684 45.1885 579.162 44.6201 578.793 43.8818C578.43 43.1436 578.248 42.2617 578.248 41.2363V41.2188C578.248 40.1992 578.43 39.3203 578.793 38.582C579.162 37.8438 579.684 37.2754 580.357 36.877C581.031 36.4785 581.831 36.2793 582.757 36.2793C583.688 36.2793 584.491 36.4785 585.165 36.877C585.839 37.2754 586.357 37.8438 586.721 38.582C587.084 39.3203 587.266 40.1992 587.266 41.2188V41.2363C587.266 42.2617 587.084 43.1436 586.721 43.8818C586.357 44.6201 585.839 45.1885 585.165 45.5869C584.497 45.9854 583.694 46.1846 582.757 46.1846ZM582.757 44.585C583.302 44.585 583.765 44.4531 584.146 44.1895C584.526 43.9258 584.816 43.5449 585.016 43.0469C585.215 42.543 585.314 41.9424 585.314 41.2451V41.2275C585.314 40.5186 585.212 39.915 585.007 39.417C584.808 38.9189 584.518 38.5381 584.137 38.2744C583.762 38.0107 583.302 37.8789 582.757 37.8789C582.218 37.8789 581.758 38.0107 581.377 38.2744C580.996 38.5381 580.703 38.9189 580.498 39.417C580.299 39.915 580.199 40.5186 580.199 41.2275V41.2451C580.199 41.9482 580.299 42.5488 580.498 43.0469C580.703 43.5449 580.996 43.9258 581.377 44.1895C581.758 44.4531 582.218 44.585 582.757 44.585ZM589.498 46V36.4639H591.405V37.9141H591.546C591.716 37.4043 592.015 37.0088 592.442 36.7275C592.87 36.4463 593.4 36.3057 594.033 36.3057C594.186 36.3057 594.338 36.3145 594.49 36.332C594.643 36.3438 594.766 36.3613 594.859 36.3848V38.1514C594.689 38.1104 594.522 38.0811 594.358 38.0635C594.194 38.0459 594.021 38.0371 593.84 38.0371C593.354 38.0371 592.929 38.1309 592.565 38.3184C592.202 38.5059 591.918 38.7695 591.713 39.1094C591.508 39.4434 591.405 39.8418 591.405 40.3047V46H589.498ZM600.432 46.0615C599.395 46.0615 598.642 45.8623 598.173 45.4639C597.71 45.0654 597.479 44.4062 597.479 43.4863V37.9756H595.993V36.4639H597.479V34.0645H599.43V36.4639H601.46V37.9756H599.43V43.0469C599.43 43.5566 599.532 43.9258 599.737 44.1543C599.942 44.377 600.279 44.4883 600.748 44.4883C600.895 44.4883 601.018 44.4854 601.117 44.4795C601.217 44.4678 601.331 44.4561 601.46 44.4443V45.9648C601.313 45.9941 601.152 46.0176 600.977 46.0352C600.801 46.0527 600.619 46.0615 600.432 46.0615ZM606.997 46.1846C606.229 46.1846 605.562 46.0732 604.993 45.8506C604.425 45.6221 603.974 45.3057 603.64 44.9014C603.306 44.4971 603.109 44.0283 603.051 43.4951V43.4775H604.967V43.4951C605.09 43.8584 605.321 44.1514 605.661 44.374C606.007 44.5967 606.464 44.708 607.032 44.708C607.425 44.708 607.768 44.6523 608.061 44.541C608.359 44.4297 608.594 44.2773 608.764 44.084C608.934 43.8848 609.019 43.6562 609.019 43.3984V43.3809C609.019 43.082 608.898 42.8301 608.658 42.625C608.418 42.4199 608.022 42.2529 607.472 42.124L605.951 41.7725C605.354 41.6377 604.858 41.4531 604.466 41.2188C604.073 40.9844 603.783 40.6973 603.596 40.3574C603.408 40.0117 603.314 39.6074 603.314 39.1445V39.1357C603.314 38.5791 603.473 38.0869 603.789 37.6592C604.105 37.2314 604.542 36.8945 605.099 36.6484C605.661 36.4023 606.3 36.2793 607.015 36.2793C607.747 36.2793 608.383 36.3936 608.922 36.6221C609.461 36.8506 609.889 37.1641 610.205 37.5625C610.521 37.9609 610.706 38.418 610.759 38.9336V38.9512H608.939L608.931 38.9336C608.849 38.5938 608.641 38.3125 608.307 38.0898C607.979 37.8672 607.545 37.7559 607.006 37.7559C606.66 37.7559 606.353 37.8115 606.083 37.9229C605.819 38.0283 605.608 38.1777 605.45 38.3711C605.298 38.5586 605.222 38.7812 605.222 39.0391V39.0479C605.222 39.2471 605.271 39.4229 605.371 39.5752C605.477 39.7217 605.638 39.8535 605.854 39.9707C606.077 40.082 606.367 40.1816 606.725 40.2695L608.236 40.6123C609.156 40.8291 609.836 41.1426 610.275 41.5527C610.721 41.9629 610.943 42.5137 610.943 43.2051V43.2139C610.943 43.8057 610.771 44.3242 610.425 44.7695C610.085 45.2148 609.616 45.5635 609.019 45.8154C608.427 46.0615 607.753 46.1846 606.997 46.1846Z" fill="white"/>
<path d="M657.831 46.5813C657.844 46.5969 657.856 46.6125 657.872 46.6281C657.884 46.6406 657.9 46.6531 657.916 46.6625C657.916 46.6625 657.919 46.6688 657.922 46.6688C659.603 48.3281 661.9 49.3563 664.438 49.3687C664.447 49.3719 664.456 49.3719 664.469 49.3719C664.478 49.375 664.491 49.375 664.5 49.375C664.509 49.375 664.522 49.375 664.531 49.3719C664.544 49.3719 664.553 49.3719 664.562 49.3687C667.113 49.3563 669.422 48.3156 671.103 46.6469C671.113 46.6406 671.119 46.6344 671.125 46.6281C671.141 46.6125 671.153 46.5969 671.166 46.5813C672.844 44.8875 673.875 42.5625 673.875 40V39.9969C673.875 37.4344 672.841 35.1094 671.166 33.4187C671.153 33.4031 671.141 33.3875 671.125 33.375C671.122 33.3688 671.116 33.3625 671.109 33.3594C671.109 33.3573 671.108 33.3562 671.106 33.3562C669.412 31.6687 667.075 30.625 664.5 30.625C661.925 30.625 659.616 31.6562 657.922 33.3281C657.922 33.3281 657.922 33.3312 657.919 33.3312C657.903 33.3438 657.888 33.3563 657.872 33.3719C657.856 33.3875 657.844 33.4031 657.831 33.4187C657.831 33.4219 657.828 33.4219 657.828 33.4219C656.156 35.1125 655.125 37.4375 655.125 39.9969V40C655.125 42.5625 656.156 44.8844 657.828 46.5781C657.828 46.5781 657.831 46.5781 657.831 46.5813ZM664.812 48.7375V46.5813C666.353 46.5125 667.797 45.9156 668.934 44.8812L670.456 46.4C668.966 47.7906 666.988 48.6656 664.812 48.7375ZM670.9 34.0406C672.291 35.5312 673.166 37.5094 673.241 39.6844H671.078C671.009 38.1438 670.413 36.7 669.378 35.5625L670.9 34.0406ZM664.188 31.2563V33.4156C662.65 33.4875 661.206 34.0844 660.062 35.1219L658.541 33.6C660.031 32.2094 662.009 31.3313 664.188 31.2563ZM660.278 35.7812C661.403 34.6625 662.891 34.0438 664.469 34.0344H664.475C664.484 34.0375 664.491 34.0375 664.5 34.0375C664.509 34.0375 664.516 34.0375 664.525 34.0344H664.531C666.106 34.0438 667.588 34.6563 668.703 35.7656L668.706 35.7687C668.709 35.7719 668.716 35.7781 668.719 35.7812C668.722 35.7844 668.728 35.7906 668.728 35.7938C669.847 36.9156 670.463 38.4094 670.463 39.9969C670.463 41.5844 669.844 43.0906 668.719 44.2188L668.716 44.2219C667.597 45.3375 666.112 45.9563 664.531 45.9656H664.525C664.516 45.9625 664.509 45.9625 664.5 45.9625C664.491 45.9625 664.484 45.9625 664.475 45.9656H664.469C662.891 45.9563 661.403 45.3375 660.278 44.2188C659.153 43.0906 658.534 41.5906 658.534 39.9969C658.534 38.4031 659.153 36.9062 660.278 35.7812ZM657.919 40.3094C657.987 41.85 658.584 43.2937 659.622 44.4375L658.1 45.9594C656.709 44.4688 655.831 42.4906 655.759 40.3094H657.919Z" fill="white"/>
<path d="M663.097 42.6031C663.372 42.6031 663.647 42.5563 663.907 42.4594L663.385 43.8844C663.35 43.9813 663.363 44.0875 663.422 44.1719C663.482 44.2531 663.575 44.3031 663.679 44.3031H665.322C665.425 44.3031 665.522 44.2531 665.579 44.1719C665.638 44.0875 665.65 43.9813 665.616 43.8844L665.094 42.4594C665.925 42.7656 666.897 42.5844 667.557 41.9219C668.454 41.0281 668.466 39.5594 667.582 38.6469L664.722 35.7875C664.604 35.6688 664.397 35.6688 664.279 35.7875L661.422 38.6469C661.42 38.6469 661.418 38.6479 661.416 38.65C660.994 39.0875 660.76 39.6656 660.76 40.2719C660.763 40.8969 661.004 41.4844 661.444 41.9219C661.897 42.375 662.497 42.6031 663.097 42.6031Z" fill="white"/>
<path d="M687.285 46.3076C686.107 46.3076 685.088 46.0381 684.227 45.499C683.371 44.96 682.712 44.1953 682.249 43.2051C681.786 42.209 681.555 41.0312 681.555 39.6719V39.6543C681.555 38.2832 681.786 37.1025 682.249 36.1123C682.712 35.1221 683.371 34.3574 684.227 33.8184C685.082 33.2793 686.102 33.0098 687.285 33.0098C688.217 33.0098 689.058 33.1943 689.808 33.5635C690.563 33.9268 691.182 34.4307 691.662 35.0752C692.148 35.7197 692.444 36.4609 692.55 37.2988V37.3516H690.599L690.581 37.3164C690.458 36.7949 690.241 36.3438 689.931 35.9629C689.626 35.582 689.248 35.2861 688.797 35.0752C688.346 34.8643 687.842 34.7588 687.285 34.7588C686.529 34.7588 685.873 34.958 685.316 35.3564C684.76 35.7549 684.329 36.3203 684.024 37.0527C683.726 37.7793 683.576 38.6465 683.576 39.6543V39.6719C683.576 40.668 683.726 41.5322 684.024 42.2646C684.329 42.9971 684.76 43.5625 685.316 43.9609C685.873 44.3594 686.532 44.5586 687.294 44.5586C687.851 44.5586 688.354 44.4648 688.806 44.2773C689.263 44.084 689.644 43.8145 689.948 43.4688C690.253 43.1172 690.464 42.7041 690.581 42.2295L690.599 42.1855H692.559V42.2383C692.43 43.0527 692.128 43.7646 691.653 44.374C691.179 44.9834 690.569 45.458 689.825 45.7979C689.081 46.1377 688.234 46.3076 687.285 46.3076ZM697.498 46.1582C696.895 46.1582 696.353 46.0439 695.872 45.8154C695.397 45.5811 695.022 45.25 694.747 44.8223C694.478 44.3945 694.343 43.8936 694.343 43.3193V43.3018C694.343 42.7334 694.48 42.2471 694.756 41.8428C695.031 41.4326 695.433 41.1133 695.96 40.8848C696.493 40.6504 697.138 40.5127 697.894 40.4717L701.418 40.2607V41.6055L698.157 41.8164C697.501 41.8516 697.018 41.9893 696.707 42.2295C696.402 42.4697 696.25 42.8008 696.25 43.2227V43.2402C696.25 43.6797 696.414 44.0225 696.742 44.2686C697.076 44.5146 697.501 44.6377 698.017 44.6377C698.491 44.6377 698.913 44.5439 699.282 44.3564C699.651 44.1631 699.941 43.9053 700.152 43.583C700.363 43.2549 700.469 42.8857 700.469 42.4756V39.4873C700.469 38.96 700.305 38.5586 699.977 38.2832C699.654 38.002 699.174 37.8613 698.535 37.8613C698.002 37.8613 697.568 37.9551 697.234 38.1426C696.9 38.3301 696.675 38.5938 696.558 38.9336L696.549 38.9688H694.712L694.721 38.8984C694.797 38.377 695.005 37.9199 695.345 37.5273C695.685 37.1348 696.133 36.8301 696.689 36.6133C697.246 36.3906 697.888 36.2793 698.614 36.2793C699.417 36.2793 700.097 36.4082 700.653 36.666C701.216 36.918 701.641 37.2842 701.928 37.7646C702.221 38.2393 702.367 38.8105 702.367 39.4785V46H700.469V44.6377H700.328C700.141 44.96 699.906 45.2354 699.625 45.4639C699.35 45.6924 699.03 45.8652 698.667 45.9824C698.31 46.0996 697.92 46.1582 697.498 46.1582ZM708.493 46.1846C707.726 46.1846 707.058 46.0732 706.489 45.8506C705.921 45.6221 705.47 45.3057 705.136 44.9014C704.802 44.4971 704.605 44.0283 704.547 43.4951V43.4775H706.463V43.4951C706.586 43.8584 706.817 44.1514 707.157 44.374C707.503 44.5967 707.96 44.708 708.528 44.708C708.921 44.708 709.264 44.6523 709.557 44.541C709.855 44.4297 710.09 44.2773 710.26 44.084C710.43 43.8848 710.515 43.6562 710.515 43.3984V43.3809C710.515 43.082 710.395 42.8301 710.154 42.625C709.914 42.4199 709.519 42.2529 708.968 42.124L707.447 41.7725C706.85 41.6377 706.354 41.4531 705.962 41.2188C705.569 40.9844 705.279 40.6973 705.092 40.3574C704.904 40.0117 704.811 39.6074 704.811 39.1445V39.1357C704.811 38.5791 704.969 38.0869 705.285 37.6592C705.602 37.2314 706.038 36.8945 706.595 36.6484C707.157 36.4023 707.796 36.2793 708.511 36.2793C709.243 36.2793 709.879 36.3936 710.418 36.6221C710.957 36.8506 711.385 37.1641 711.701 37.5625C712.018 37.9609 712.202 38.418 712.255 38.9336V38.9512H710.436L710.427 38.9336C710.345 38.5938 710.137 38.3125 709.803 38.0898C709.475 37.8672 709.041 37.7559 708.502 37.7559C708.156 37.7559 707.849 37.8115 707.579 37.9229C707.315 38.0283 707.104 38.1777 706.946 38.3711C706.794 38.5586 706.718 38.7812 706.718 39.0391V39.0479C706.718 39.2471 706.768 39.4229 706.867 39.5752C706.973 39.7217 707.134 39.8535 707.351 39.9707C707.573 40.082 707.863 40.1816 708.221 40.2695L709.732 40.6123C710.652 40.8291 711.332 41.1426 711.771 41.5527C712.217 41.9629 712.439 42.5137 712.439 43.2051V43.2139C712.439 43.8057 712.267 44.3242 711.921 44.7695C711.581 45.2148 711.112 45.5635 710.515 45.8154C709.923 46.0615 709.249 46.1846 708.493 46.1846ZM714.716 46V36.4639H716.632V46H714.716ZM715.683 34.7764C715.354 34.7764 715.073 34.6592 714.839 34.4248C714.604 34.1904 714.487 33.9121 714.487 33.5898C714.487 33.2617 714.604 32.9834 714.839 32.7549C715.073 32.5205 715.354 32.4033 715.683 32.4033C716.011 32.4033 716.292 32.5205 716.526 32.7549C716.761 32.9834 716.878 33.2617 716.878 33.5898C716.878 33.9121 716.761 34.1904 716.526 34.4248C716.292 34.6592 716.011 34.7764 715.683 34.7764ZM719.365 46V36.4639H721.272V37.9141H721.413C721.647 37.4043 721.993 37.0059 722.45 36.7188C722.913 36.4258 723.49 36.2793 724.182 36.2793C725.254 36.2793 726.074 36.5869 726.643 37.2021C727.211 37.8174 727.495 38.6934 727.495 39.8301V46H725.579V40.2695C725.579 39.4844 725.412 38.8984 725.078 38.5117C724.75 38.1191 724.234 37.9229 723.531 37.9229C723.068 37.9229 722.667 38.0254 722.327 38.2305C721.993 38.4297 721.732 38.7139 721.545 39.083C721.363 39.4521 721.272 39.8945 721.272 40.4102V46H719.365ZM734.157 46.1846C733.231 46.1846 732.432 45.9854 731.758 45.5869C731.084 45.1885 730.562 44.6201 730.193 43.8818C729.83 43.1436 729.648 42.2617 729.648 41.2363V41.2188C729.648 40.1992 729.83 39.3203 730.193 38.582C730.562 37.8438 731.084 37.2754 731.758 36.877C732.432 36.4785 733.231 36.2793 734.157 36.2793C735.089 36.2793 735.892 36.4785 736.565 36.877C737.239 37.2754 737.758 37.8438 738.121 38.582C738.484 39.3203 738.666 40.1992 738.666 41.2188V41.2363C738.666 42.2617 738.484 43.1436 738.121 43.8818C737.758 44.6201 737.239 45.1885 736.565 45.5869C735.897 45.9854 735.095 46.1846 734.157 46.1846ZM734.157 44.585C734.702 44.585 735.165 44.4531 735.546 44.1895C735.927 43.9258 736.217 43.5449 736.416 43.0469C736.615 42.543 736.715 41.9424 736.715 41.2451V41.2275C736.715 40.5186 736.612 39.915 736.407 39.417C736.208 38.9189 735.918 38.5381 735.537 38.2744C735.162 38.0107 734.702 37.8789 734.157 37.8789C733.618 37.8789 733.158 38.0107 732.777 38.2744C732.396 38.5381 732.104 38.9189 731.898 39.417C731.699 39.915 731.6 40.5186 731.6 41.2275V41.2451C731.6 41.9482 731.699 42.5488 731.898 43.0469C732.104 43.5449 732.396 43.9258 732.777 44.1895C733.158 44.4531 733.618 44.585 734.157 44.585Z" fill="white"/>
<path d="M790.645 39.2038C791.239 42.1082 791.581 45.0629 791.666 48.0318C791.667 48.1014 791.645 48.1691 791.603 48.2232C791.561 48.2773 791.503 48.3145 791.438 48.3282C791.372 48.342 791.305 48.3315 791.246 48.2986C791.188 48.2657 791.142 48.2124 791.117 48.148C789.831 44.7028 787.843 41.5926 785.291 39.034C785.155 38.8952 785.054 38.7235 784.997 38.534C784.94 38.3446 784.928 38.1432 784.962 37.9478C784.997 37.7524 785.077 37.5689 785.195 37.4135C785.314 37.2582 785.467 37.1357 785.641 37.057L786.662 36.6044L784.589 34.8567C784.435 34.7246 784.317 34.5534 784.245 34.3596C784.173 34.1658 784.15 33.9559 784.177 33.75C784.205 33.544 784.283 33.349 784.403 33.1836C784.524 33.0181 784.682 32.8879 784.865 32.8052L787.242 31.7602C787.385 31.698 787.538 31.6665 787.693 31.6675C787.848 31.6686 788.002 31.7021 788.144 31.7663C788.286 31.8304 788.415 31.9238 788.522 32.0409C788.63 32.1579 788.713 32.2964 788.769 32.448C789.548 34.6498 790.176 36.9075 790.645 39.2038Z" fill="white"/>
<path d="M794.156 34.107L792.5 33.268L790.844 34.107C790.755 34.1511 790.656 34.1717 790.557 34.1667C790.458 34.1617 790.362 34.1314 790.278 34.0785C790.193 34.0257 790.124 33.952 790.075 33.8645C790.026 33.7769 790.001 33.6783 790 33.5779V32.257C790.001 32.1566 790.026 32.058 790.075 31.9704C790.124 31.8829 790.193 31.8092 790.278 31.7564C790.362 31.7035 790.458 31.6732 790.557 31.6682C790.656 31.6633 790.755 31.6838 790.844 31.728L792.5 32.5669L794.156 31.728C794.245 31.6838 794.344 31.6632 794.443 31.6682C794.542 31.6732 794.638 31.7035 794.722 31.7564C794.807 31.8092 794.876 31.8829 794.925 31.9704C794.974 32.058 794.999 32.1566 795 32.257V33.5779C794.999 33.6784 794.974 33.777 794.925 33.8645C794.876 33.9521 794.807 34.0258 794.723 34.0786C794.638 34.1315 794.542 34.1618 794.443 34.1668C794.344 34.1717 794.245 34.1511 794.156 34.107Z" fill="white"/>
<path d="M800.411 34.8568L798.338 36.6047L799.359 37.0574C799.532 37.1356 799.684 37.2569 799.802 37.4107C799.92 37.5645 800 37.7462 800.036 37.94C800.072 38.1337 800.061 38.3337 800.006 38.5224C799.951 38.7111 799.853 38.8828 799.72 39.0227C797.164 41.584 795.171 44.6987 793.883 48.1493C793.858 48.2134 793.812 48.2663 793.753 48.299C793.695 48.3316 793.628 48.342 793.563 48.3282C793.498 48.3145 793.439 48.2775 793.398 48.2237C793.356 48.1699 793.333 48.1025 793.334 48.0332C793.486 42.7078 794.464 37.4438 796.231 32.4479C796.287 32.2963 796.371 32.1579 796.478 32.0408C796.585 31.9238 796.714 31.8304 796.856 31.7663C796.998 31.7022 797.152 31.6686 797.307 31.6675C797.462 31.6664 797.615 31.6979 797.758 31.76L800.135 32.8052C800.318 32.8878 800.476 33.0181 800.597 33.1835C800.717 33.349 800.795 33.544 800.823 33.75C800.85 33.956 800.827 34.1659 800.755 34.3597C800.683 34.5535 800.564 34.7247 800.411 34.8568Z" fill="white"/>
<path d="M810.073 46V33.3174H812.042V44.2949H817.983V46H810.073ZM820.251 46V36.4639H822.167V46H820.251ZM821.218 34.7764C820.89 34.7764 820.608 34.6592 820.374 34.4248C820.14 34.1904 820.022 33.9121 820.022 33.5898C820.022 33.2617 820.14 32.9834 820.374 32.7549C820.608 32.5205 820.89 32.4033 821.218 32.4033C821.546 32.4033 821.827 32.5205 822.062 32.7549C822.296 32.9834 822.413 33.2617 822.413 33.5898C822.413 33.9121 822.296 34.1904 822.062 34.4248C821.827 34.6592 821.546 34.7764 821.218 34.7764ZM827.52 46L824.074 36.4639H826.104L828.478 44.0664H828.618L830.991 36.4639H833.004L829.559 46H827.52ZM838.523 46.1846C837.592 46.1846 836.792 45.9854 836.124 45.5869C835.456 45.1826 834.94 44.6113 834.577 43.873C834.22 43.1348 834.041 42.2646 834.041 41.2627V41.2539C834.041 40.2578 834.22 39.3877 834.577 38.6436C834.94 37.8994 835.45 37.3193 836.106 36.9033C836.763 36.4873 837.533 36.2793 838.418 36.2793C839.309 36.2793 840.073 36.4814 840.712 36.8857C841.356 37.2842 841.852 37.8438 842.197 38.5645C842.543 39.2793 842.716 40.1143 842.716 41.0693V41.7373H835.008V40.375H841.767L840.853 41.6318V40.876C840.853 40.1963 840.747 39.6338 840.536 39.1885C840.331 38.7373 840.047 38.4033 839.684 38.1865C839.326 37.9639 838.91 37.8525 838.436 37.8525C837.961 37.8525 837.536 37.9697 837.161 38.2041C836.792 38.4326 836.499 38.7725 836.282 39.2236C836.071 39.6689 835.966 40.2197 835.966 40.876V41.6406C835.966 42.2617 836.071 42.7949 836.282 43.2402C836.493 43.6855 836.792 44.0254 837.179 44.2598C837.571 44.4941 838.031 44.6113 838.559 44.6113C838.969 44.6113 839.32 44.5557 839.613 44.4443C839.912 44.3271 840.155 44.1836 840.343 44.0137C840.536 43.8438 840.668 43.6768 840.738 43.5127L840.773 43.4424L842.619 43.4336L842.593 43.5127C842.517 43.835 842.376 44.1543 842.171 44.4707C841.966 44.7812 841.693 45.0654 841.354 45.3232C841.02 45.5811 840.615 45.7891 840.141 45.9473C839.672 46.1055 839.133 46.1846 838.523 46.1846ZM850.028 46V33.3174H854.607C855.861 33.3174 856.934 33.5664 857.824 34.0645C858.715 34.5625 859.395 35.2803 859.863 36.2178C860.338 37.1553 860.575 38.2891 860.575 39.6191V39.6367C860.575 40.9785 860.338 42.124 859.863 43.0732C859.395 44.0225 858.715 44.749 857.824 45.2529C856.939 45.751 855.867 46 854.607 46H850.028ZM851.997 44.2949H854.388C855.272 44.2949 856.025 44.1133 856.646 43.75C857.268 43.3867 857.742 42.8594 858.07 42.168C858.398 41.4766 858.562 40.6416 858.562 39.6631V39.6455C858.562 38.6729 858.396 37.8408 858.062 37.1494C857.733 36.458 857.256 35.9307 856.629 35.5674C856.008 35.2041 855.261 35.0225 854.388 35.0225H851.997V44.2949ZM867 46.1846C866.068 46.1846 865.269 45.9854 864.601 45.5869C863.933 45.1826 863.417 44.6113 863.054 43.873C862.696 43.1348 862.518 42.2646 862.518 41.2627V41.2539C862.518 40.2578 862.696 39.3877 863.054 38.6436C863.417 37.8994 863.927 37.3193 864.583 36.9033C865.239 36.4873 866.01 36.2793 866.895 36.2793C867.785 36.2793 868.55 36.4814 869.188 36.8857C869.833 37.2842 870.328 37.8438 870.674 38.5645C871.02 39.2793 871.192 40.1143 871.192 41.0693V41.7373H863.484V40.375H870.243L869.329 41.6318V40.876C869.329 40.1963 869.224 39.6338 869.013 39.1885C868.808 38.7373 868.523 38.4033 868.16 38.1865C867.803 37.9639 867.387 37.8525 866.912 37.8525C866.438 37.8525 866.013 37.9697 865.638 38.2041C865.269 38.4326 864.976 38.7725 864.759 39.2236C864.548 39.6689 864.442 40.2197 864.442 40.876V41.6406C864.442 42.2617 864.548 42.7949 864.759 43.2402C864.97 43.6855 865.269 44.0254 865.655 44.2598C866.048 44.4941 866.508 44.6113 867.035 44.6113C867.445 44.6113 867.797 44.5557 868.09 44.4443C868.389 44.3271 868.632 44.1836 868.819 44.0137C869.013 43.8438 869.145 43.6768 869.215 43.5127L869.25 43.4424L871.096 43.4336L871.069 43.5127C870.993 43.835 870.853 44.1543 870.647 44.4707C870.442 44.7812 870.17 45.0654 869.83 45.3232C869.496 45.5811 869.092 45.7891 868.617 45.9473C868.148 46.1055 867.609 46.1846 867 46.1846ZM876.053 46.1582C875.449 46.1582 874.907 46.0439 874.427 45.8154C873.952 45.5811 873.577 45.25 873.302 44.8223C873.032 44.3945 872.897 43.8936 872.897 43.3193V43.3018C872.897 42.7334 873.035 42.2471 873.311 41.8428C873.586 41.4326 873.987 41.1133 874.515 40.8848C875.048 40.6504 875.692 40.5127 876.448 40.4717L879.973 40.2607V41.6055L876.712 41.8164C876.056 41.8516 875.572 41.9893 875.262 42.2295C874.957 42.4697 874.805 42.8008 874.805 43.2227V43.2402C874.805 43.6797 874.969 44.0225 875.297 44.2686C875.631 44.5146 876.056 44.6377 876.571 44.6377C877.046 44.6377 877.468 44.5439 877.837 44.3564C878.206 44.1631 878.496 43.9053 878.707 43.583C878.918 43.2549 879.023 42.8857 879.023 42.4756V39.4873C879.023 38.96 878.859 38.5586 878.531 38.2832C878.209 38.002 877.729 37.8613 877.09 37.8613C876.557 37.8613 876.123 37.9551 875.789 38.1426C875.455 38.3301 875.229 38.5938 875.112 38.9336L875.104 38.9688H873.267L873.275 38.8984C873.352 38.377 873.56 37.9199 873.899 37.5273C874.239 37.1348 874.688 36.8301 875.244 36.6133C875.801 36.3906 876.442 36.2793 877.169 36.2793C877.972 36.2793 878.651 36.4082 879.208 36.666C879.771 36.918 880.195 37.2842 880.482 37.7646C880.775 38.2393 880.922 38.8105 880.922 39.4785V46H879.023V44.6377H878.883C878.695 44.96 878.461 45.2354 878.18 45.4639C877.904 45.6924 877.585 45.8652 877.222 45.9824C876.864 46.0996 876.475 46.1582 876.053 46.1582ZM883.664 46V32.7373H885.571V46H883.664ZM892.383 46.1846C891.451 46.1846 890.651 45.9854 889.983 45.5869C889.315 45.1826 888.8 44.6113 888.437 43.873C888.079 43.1348 887.9 42.2646 887.9 41.2627V41.2539C887.9 40.2578 888.079 39.3877 888.437 38.6436C888.8 37.8994 889.31 37.3193 889.966 36.9033C890.622 36.4873 891.393 36.2793 892.277 36.2793C893.168 36.2793 893.933 36.4814 894.571 36.8857C895.216 37.2842 895.711 37.8438 896.057 38.5645C896.402 39.2793 896.575 40.1143 896.575 41.0693V41.7373H888.867V40.375H895.626L894.712 41.6318V40.876C894.712 40.1963 894.606 39.6338 894.396 39.1885C894.19 38.7373 893.906 38.4033 893.543 38.1865C893.186 37.9639 892.77 37.8525 892.295 37.8525C891.82 37.8525 891.396 37.9697 891.021 38.2041C890.651 38.4326 890.358 38.7725 890.142 39.2236C889.931 39.6689 889.825 40.2197 889.825 40.876V41.6406C889.825 42.2617 889.931 42.7949 890.142 43.2402C890.353 43.6855 890.651 44.0254 891.038 44.2598C891.431 44.4941 891.891 44.6113 892.418 44.6113C892.828 44.6113 893.18 44.5557 893.473 44.4443C893.771 44.3271 894.015 44.1836 894.202 44.0137C894.396 43.8438 894.527 43.6768 894.598 43.5127L894.633 43.4424L896.479 43.4336L896.452 43.5127C896.376 43.835 896.235 44.1543 896.03 44.4707C895.825 44.7812 895.553 45.0654 895.213 45.3232C894.879 45.5811 894.475 45.7891 894 45.9473C893.531 46.1055 892.992 46.1846 892.383 46.1846ZM898.816 46V36.4639H900.724V37.9141H900.864C901.034 37.4043 901.333 37.0088 901.761 36.7275C902.188 36.4463 902.719 36.3057 903.352 36.3057C903.504 36.3057 903.656 36.3145 903.809 36.332C903.961 36.3438 904.084 36.3613 904.178 36.3848V38.1514C904.008 38.1104 903.841 38.0811 903.677 38.0635C903.513 38.0459 903.34 38.0371 903.158 38.0371C902.672 38.0371 902.247 38.1309 901.884 38.3184C901.521 38.5059 901.236 38.7695 901.031 39.1094C900.826 39.4434 900.724 39.8418 900.724 40.3047V46H898.816Z" fill="white"/>
<path fill-rule="evenodd" clip-rule="evenodd" d="M960.809 35.8476C961.177 35.9461 961.484 36.1804 961.672 36.5073C962.037 37.1381 961.86 37.935 961.288 38.3585L959.877 35.9145C960.169 35.7877 960.494 35.7632 960.809 35.8476V35.8476ZM952.011 45.078L953.981 43.941L951.386 39.453L949.419 40.5887C948.823 40.9331 948.395 41.4924 948.215 42.1634C948.035 42.8345 948.126 43.5327 948.47 44.1291C948.95 44.9597 949.823 45.4247 950.72 45.4247C951.159 45.4247 951.604 45.313 952.011 45.078ZM956.12 47.6526L954.466 44.7882L952.922 45.6795L954.576 48.544C954.822 48.9696 955.368 49.1159 955.794 48.8702C955.999 48.752 956.146 48.5595 956.208 48.3286C956.269 48.0976 956.238 47.8577 956.12 47.6526V47.6526ZM962.27 42.0133L957.203 33.2364C957.097 33.0533 956.924 32.953 956.714 32.953C956.71 32.953 956.706 32.9532 956.702 32.9532C956.487 32.9571 956.313 33.0641 956.212 33.2545C956.034 33.5906 955.862 33.9493 955.68 34.3291C954.916 35.9264 954.056 37.7219 952.224 38.9502L954.835 43.4672C956.812 42.4963 958.797 42.6492 960.561 42.7855C960.982 42.8181 961.379 42.8486 961.759 42.8626C961.975 42.8709 962.154 42.7733 962.265 42.5888C962.376 42.4042 962.378 42.1997 962.271 42.0133L962.27 42.0133ZM960.997 33.0014C960.862 33.2349 960.942 33.5335 961.175 33.6684C961.252 33.7128 961.336 33.7339 961.419 33.7339C961.588 33.7339 961.752 33.6463 961.842 33.4897L962.851 31.7431C962.986 31.5096 962.906 31.211 962.672 31.0761C962.438 30.9413 962.14 31.0213 962.005 31.2548L960.997 33.0014ZM966.876 38.3569C966.876 38.0874 966.658 37.8686 966.387 37.8686L964.371 37.8688C964.101 37.8688 963.882 38.0874 963.882 38.3571C963.882 38.6267 964.101 38.8454 964.371 38.8454L966.387 38.8452C966.658 38.8452 966.876 38.6267 966.876 38.3569ZM965.709 34.1768C965.573 33.9433 965.276 33.8633 965.042 33.9981L963.253 35.0308C963.019 35.1658 962.939 35.4643 963.074 35.698C963.165 35.8546 963.329 35.9422 963.497 35.9422C963.58 35.9422 963.664 35.9209 963.741 35.8767L965.53 34.8438C965.763 34.7089 965.844 34.4103 965.709 34.1768Z" fill="white"/>
<path d="M976.058 41.667V40.0146H979.512C980.367 40.0146 981.029 39.7949 981.498 39.3555C981.967 38.9102 982.201 38.2949 982.201 37.5098V37.4922C982.201 36.6953 981.967 36.0771 981.498 35.6377C981.029 35.1982 980.367 34.9785 979.512 34.9785H976.058V33.3174H980.004C980.836 33.3174 981.565 33.4932 982.192 33.8447C982.825 34.1904 983.32 34.6768 983.678 35.3037C984.035 35.9248 984.214 36.6484 984.214 37.4746V37.4922C984.214 38.3184 984.035 39.0479 983.678 39.6807C983.32 40.3076 982.825 40.7969 982.192 41.1484C981.565 41.4941 980.836 41.667 980.004 41.667H976.058ZM975.073 46V33.3174H977.042V46H975.073ZM986.49 46V36.4639H988.397V37.9141H988.538C988.708 37.4043 989.007 37.0088 989.435 36.7275C989.862 36.4463 990.393 36.3057 991.025 36.3057C991.178 36.3057 991.33 36.3145 991.482 36.332C991.635 36.3438 991.758 36.3613 991.852 36.3848V38.1514C991.682 38.1104 991.515 38.0811 991.351 38.0635C991.187 38.0459 991.014 38.0371 990.832 38.0371C990.346 38.0371 989.921 38.1309 989.558 38.3184C989.194 38.5059 988.91 38.7695 988.705 39.1094C988.5 39.4434 988.397 39.8418 988.397 40.3047V46H986.49ZM997.433 46.1846C996.507 46.1846 995.707 45.9854 995.033 45.5869C994.359 45.1885 993.838 44.6201 993.469 43.8818C993.105 43.1436 992.924 42.2617 992.924 41.2363V41.2188C992.924 40.1992 993.105 39.3203 993.469 38.582C993.838 37.8438 994.359 37.2754 995.033 36.877C995.707 36.4785 996.507 36.2793 997.433 36.2793C998.364 36.2793 999.167 36.4785 999.841 36.877C1000.51 37.2754 1001.03 37.8438 1001.4 38.582C1001.76 39.3203 1001.94 40.1992 1001.94 41.2188V41.2363C1001.94 42.2617 1001.76 43.1436 1001.4 43.8818C1001.03 44.6201 1000.51 45.1885 999.841 45.5869C999.173 45.9854 998.37 46.1846 997.433 46.1846ZM997.433 44.585C997.978 44.585 998.44 44.4531 998.821 44.1895C999.202 43.9258 999.492 43.5449 999.691 43.0469C999.891 42.543 999.99 41.9424 999.99 41.2451V41.2275C999.99 40.5186 999.888 39.915 999.683 39.417C999.483 38.9189 999.193 38.5381 998.812 38.2744C998.438 38.0107 997.978 37.8789 997.433 37.8789C996.894 37.8789 996.434 38.0107 996.053 38.2744C995.672 38.5381 995.379 38.9189 995.174 39.417C994.975 39.915 994.875 40.5186 994.875 41.2275V41.2451C994.875 41.9482 994.975 42.5488 995.174 43.0469C995.379 43.5449 995.672 43.9258 996.053 44.1895C996.434 44.4531 996.894 44.585 997.433 44.585ZM1004.17 46V36.4639H1006.08V37.9316H1006.22C1006.43 37.4102 1006.76 37.0059 1007.21 36.7188C1007.66 36.4258 1008.2 36.2793 1008.82 36.2793C1009.26 36.2793 1009.65 36.3525 1009.99 36.499C1010.34 36.6396 1010.63 36.8389 1010.88 37.0967C1011.13 37.3486 1011.33 37.6475 1011.47 37.9932H1011.61C1011.77 37.6475 1011.99 37.3486 1012.28 37.0967C1012.56 36.8389 1012.9 36.6396 1013.28 36.499C1013.67 36.3525 1014.08 36.2793 1014.51 36.2793C1015.15 36.2793 1015.7 36.4053 1016.15 36.6572C1016.61 36.9092 1016.96 37.2695 1017.2 37.7383C1017.45 38.2012 1017.57 38.7637 1017.57 39.4258V46H1015.66V39.8828C1015.66 39.4434 1015.59 39.0801 1015.46 38.793C1015.32 38.5059 1015.12 38.2891 1014.84 38.1426C1014.57 37.9961 1014.23 37.9229 1013.82 37.9229C1013.42 37.9229 1013.07 38.0137 1012.76 38.1953C1012.46 38.377 1012.23 38.623 1012.07 38.9336C1011.9 39.2441 1011.82 39.5898 1011.82 39.9707V46H1009.91V39.6982C1009.91 39.335 1009.84 39.0215 1009.68 38.7578C1009.54 38.4883 1009.33 38.2832 1009.05 38.1426C1008.78 37.9961 1008.46 37.9229 1008.08 37.9229C1007.7 37.9229 1007.36 38.0225 1007.06 38.2217C1006.75 38.415 1006.51 38.6816 1006.34 39.0215C1006.17 39.3555 1006.08 39.7305 1006.08 40.1465V46H1004.17ZM1024.22 46.1846C1023.3 46.1846 1022.5 45.9854 1021.82 45.5869C1021.15 45.1885 1020.63 44.6201 1020.26 43.8818C1019.89 43.1436 1019.71 42.2617 1019.71 41.2363V41.2188C1019.71 40.1992 1019.89 39.3203 1020.26 38.582C1020.63 37.8438 1021.15 37.2754 1021.82 36.877C1022.5 36.4785 1023.3 36.2793 1024.22 36.2793C1025.15 36.2793 1025.96 36.4785 1026.63 36.877C1027.3 37.2754 1027.82 37.8438 1028.19 38.582C1028.55 39.3203 1028.73 40.1992 1028.73 41.2188V41.2363C1028.73 42.2617 1028.55 43.1436 1028.19 43.8818C1027.82 44.6201 1027.3 45.1885 1026.63 45.5869C1025.96 45.9854 1025.16 46.1846 1024.22 46.1846ZM1024.22 44.585C1024.77 44.585 1025.23 44.4531 1025.61 44.1895C1025.99 43.9258 1026.28 43.5449 1026.48 43.0469C1026.68 42.543 1026.78 41.9424 1026.78 41.2451V41.2275C1026.78 40.5186 1026.68 39.915 1026.47 39.417C1026.27 38.9189 1025.98 38.5381 1025.6 38.2744C1025.23 38.0107 1024.77 37.8789 1024.22 37.8789C1023.68 37.8789 1023.22 38.0107 1022.84 38.2744C1022.46 38.5381 1022.17 38.9189 1021.96 39.417C1021.76 39.915 1021.66 40.5186 1021.66 41.2275V41.2451C1021.66 41.9482 1021.76 42.5488 1021.96 43.0469C1022.17 43.5449 1022.46 43.9258 1022.84 44.1895C1023.22 44.4531 1023.68 44.585 1024.22 44.585ZM1034.55 46.0615C1033.51 46.0615 1032.76 45.8623 1032.29 45.4639C1031.83 45.0654 1031.6 44.4062 1031.6 43.4863V37.9756H1030.11V36.4639H1031.6V34.0645H1033.55V36.4639H1035.58V37.9756H1033.55V43.0469C1033.55 43.5566 1033.65 43.9258 1033.85 44.1543C1034.06 44.377 1034.4 44.4883 1034.87 44.4883C1035.01 44.4883 1035.13 44.4854 1035.23 44.4795C1035.33 44.4678 1035.45 44.4561 1035.58 44.4443V45.9648C1035.43 45.9941 1035.27 46.0176 1035.09 46.0352C1034.92 46.0527 1034.74 46.0615 1034.55 46.0615ZM1037.81 46V36.4639H1039.73V46H1037.81ZM1038.78 34.7764C1038.45 34.7764 1038.17 34.6592 1037.93 34.4248C1037.7 34.1904 1037.58 33.9121 1037.58 33.5898C1037.58 33.2617 1037.7 32.9834 1037.93 32.7549C1038.17 32.5205 1038.45 32.4033 1038.78 32.4033C1039.1 32.4033 1039.39 32.5205 1039.62 32.7549C1039.85 32.9834 1039.97 33.2617 1039.97 33.5898C1039.97 33.9121 1039.85 34.1904 1039.62 34.4248C1039.39 34.6592 1039.1 34.7764 1038.78 34.7764ZM1046.49 46.1846C1045.57 46.1846 1044.77 45.9854 1044.09 45.5869C1043.42 45.1885 1042.9 44.6201 1042.53 43.8818C1042.17 43.1436 1041.98 42.2617 1041.98 41.2363V41.2188C1041.98 40.1992 1042.17 39.3203 1042.53 38.582C1042.9 37.8438 1043.42 37.2754 1044.09 36.877C1044.77 36.4785 1045.57 36.2793 1046.49 36.2793C1047.42 36.2793 1048.23 36.4785 1048.9 36.877C1049.58 37.2754 1050.09 37.8438 1050.46 38.582C1050.82 39.3203 1051 40.1992 1051 41.2188V41.2363C1051 42.2617 1050.82 43.1436 1050.46 43.8818C1050.09 44.6201 1049.58 45.1885 1048.9 45.5869C1048.23 45.9854 1047.43 46.1846 1046.49 46.1846ZM1046.49 44.585C1047.04 44.585 1047.5 44.4531 1047.88 44.1895C1048.26 43.9258 1048.55 43.5449 1048.75 43.0469C1048.95 42.543 1049.05 41.9424 1049.05 41.2451V41.2275C1049.05 40.5186 1048.95 39.915 1048.74 39.417C1048.54 38.9189 1048.25 38.5381 1047.87 38.2744C1047.5 38.0107 1047.04 37.8789 1046.49 37.8789C1045.95 37.8789 1045.49 38.0107 1045.11 38.2744C1044.73 38.5381 1044.44 38.9189 1044.23 39.417C1044.04 39.915 1043.94 40.5186 1043.94 41.2275V41.2451C1043.94 41.9482 1044.04 42.5488 1044.23 43.0469C1044.44 43.5449 1044.73 43.9258 1045.11 44.1895C1045.49 44.4531 1045.95 44.585 1046.49 44.585ZM1053.23 46V36.4639H1055.14V37.9141H1055.28C1055.52 37.4043 1055.86 37.0059 1056.32 36.7188C1056.78 36.4258 1057.36 36.2793 1058.05 36.2793C1059.12 36.2793 1059.94 36.5869 1060.51 37.2021C1061.08 37.8174 1061.36 38.6934 1061.36 39.8301V46H1059.45V40.2695C1059.45 39.4844 1059.28 38.8984 1058.95 38.5117C1058.62 38.1191 1058.1 37.9229 1057.4 37.9229C1056.94 37.9229 1056.54 38.0254 1056.2 38.2305C1055.86 38.4297 1055.6 38.7139 1055.41 39.083C1055.23 39.4521 1055.14 39.8945 1055.14 40.4102V46H1053.23ZM1067.46 46.1846C1066.7 46.1846 1066.03 46.0732 1065.46 45.8506C1064.89 45.6221 1064.44 45.3057 1064.11 44.9014C1063.77 44.4971 1063.58 44.0283 1063.52 43.4951V43.4775H1065.43V43.4951C1065.56 43.8584 1065.79 44.1514 1066.13 44.374C1066.47 44.5967 1066.93 44.708 1067.5 44.708C1067.89 44.708 1068.23 44.6523 1068.53 44.541C1068.83 44.4297 1069.06 44.2773 1069.23 44.084C1069.4 43.8848 1069.49 43.6562 1069.49 43.3984V43.3809C1069.49 43.082 1069.37 42.8301 1069.12 42.625C1068.88 42.4199 1068.49 42.2529 1067.94 42.124L1066.42 41.7725C1065.82 41.6377 1065.33 41.4531 1064.93 41.2188C1064.54 40.9844 1064.25 40.6973 1064.06 40.3574C1063.88 40.0117 1063.78 39.6074 1063.78 39.1445V39.1357C1063.78 38.5791 1063.94 38.0869 1064.26 37.6592C1064.57 37.2314 1065.01 36.8945 1065.57 36.6484C1066.13 36.4023 1066.77 36.2793 1067.48 36.2793C1068.21 36.2793 1068.85 36.3936 1069.39 36.6221C1069.93 36.8506 1070.36 37.1641 1070.67 37.5625C1070.99 37.9609 1071.17 38.418 1071.23 38.9336V38.9512H1069.41L1069.4 38.9336C1069.32 38.5938 1069.11 38.3125 1068.77 38.0898C1068.45 37.8672 1068.01 37.7559 1067.47 37.7559C1067.13 37.7559 1066.82 37.8115 1066.55 37.9229C1066.29 38.0283 1066.08 38.1777 1065.92 38.3711C1065.76 38.5586 1065.69 38.7812 1065.69 39.0391V39.0479C1065.69 39.2471 1065.74 39.4229 1065.84 39.5752C1065.94 39.7217 1066.1 39.8535 1066.32 39.9707C1066.54 40.082 1066.83 40.1816 1067.19 40.2695L1068.7 40.6123C1069.62 40.8291 1070.3 41.1426 1070.74 41.5527C1071.19 41.9629 1071.41 42.5137 1071.41 43.2051V43.2139C1071.41 43.8057 1071.24 44.3242 1070.89 44.7695C1070.55 45.2148 1070.08 45.5635 1069.49 45.8154C1068.89 46.0615 1068.22 46.1846 1067.46 46.1846Z" fill="white"/>
<defs>
<linearGradient id="paint0_linear_578_4925" x1="84.5195" y1="40" x2="309.411" y2="40" gradientUnits="userSpaceOnUse">
<stop stop-color="#E5E52E"/>
<stop offset="0.55" stop-color="#AED13B"/>
<stop offset="0.98" stop-color="#E5E530"/>
</linearGradient>
<radialGradient id="paint1_radial_578_4925" cx="0" cy="0" r="1" gradientUnits="userSpaceOnUse" gradientTransform="translate(194.229 40.0643) scale(25.8368 25.7459)">
<stop stop-color="#E3FF86"/>
<stop offset="0.548077" stop-color="#E5E52E"/>
<stop offset="1" stop-color="#BBD764"/>
</radialGradient>
<clipPath id="clip0_578_4925">
<rect width="18" height="18" fill="white" transform="translate(1235 31)"/>
</clipPath>
</defs>
</svg>
