<svg width="20" height="20" viewBox="0 0 20 20" fill="none" xmlns="http://www.w3.org/2000/svg">
<path fill-rule="evenodd" clip-rule="evenodd" d="M2.16921 10.8604C1.7015 10.0322 1.41162 9.0905 1.35156 8.08733H3.68567C3.57749 9.20972 3.0079 10.1981 2.16921 10.8604ZM4.46974 8.08733H7.3966V10.9962C6.51283 10.7211 5.53511 10.7236 4.59993 11.067C3.99531 11.289 3.46932 11.6311 3.03906 12.0565C2.8818 11.8853 2.73366 11.7056 2.59542 11.5182C3.64715 10.7132 4.35732 9.48408 4.46974 8.08733ZM3.68567 7.30632H1.35156C1.41162 6.30314 1.7015 5.36147 2.16921 4.53329C3.00789 5.19559 3.57749 6.18393 3.68567 7.30632ZM2.59542 3.87541C3.69749 2.3813 5.4287 1.3791 7.3966 1.26129V7.30632H4.46974C4.35732 5.90957 3.64715 4.6804 2.59542 3.87541ZM8.1776 1.26129C10.1455 1.3791 11.8767 2.3813 12.9788 3.87541C11.927 4.6804 11.2169 5.90957 11.1044 7.30632H8.1776V1.26129ZM8.1776 8.08733H11.1044C11.1407 8.53751 11.239 8.97027 11.3908 9.37704C11.1301 9.58416 10.8776 9.80893 10.6352 10.0513C10.0281 10.6584 9.53137 11.329 9.14592 12.0347C8.8559 11.7532 8.52944 11.5149 8.1776 11.325V8.08733ZM13.405 4.53329C13.8727 5.36147 14.1626 6.30314 14.2226 7.30632H11.8885C11.9967 6.18393 12.5663 5.19559 13.405 4.53329ZM11.8885 8.08733H13.647C13.0997 8.29602 12.5643 8.56706 12.0529 8.90007C11.9713 8.63951 11.9155 8.3676 11.8885 8.08733Z" fill="white"/>
<path fill-rule="evenodd" clip-rule="evenodd" d="M18.5087 11.9669C18.222 13.3418 17.5126 14.6962 16.3951 15.8137C15.2776 16.9312 13.9232 17.6406 12.5483 17.9273L10.4178 15.7968C10.5204 15.1044 10.4575 14.3777 10.2024 13.6746C10.2005 13.6693 10.1986 13.664 10.1966 13.6587C10.0661 13.3033 9.89416 12.9751 9.68818 12.6776C10.056 11.9369 10.5558 11.2327 11.185 10.6036C11.3616 10.4269 11.5442 10.2604 11.7319 10.1042C11.9362 9.93413 12.1464 9.77624 12.3616 9.63059C12.9299 9.24588 13.5324 8.94647 14.1487 8.73373C14.4406 8.63295 14.7357 8.55163 15.0317 8.48991L18.5087 11.9669ZM16.0041 8.35785C16.8109 8.3069 17.6071 8.40321 18.3489 8.64976C18.5954 9.39148 18.6917 10.1877 18.6408 10.9945L16.0041 8.35785ZM15.8232 11.7277L16.0199 11.5309C16.1723 11.3785 16.1723 11.1311 16.0199 10.9787C15.8675 10.8263 15.6201 10.8263 15.4677 10.9787L15.271 11.1754L15.1235 11.0279C14.9711 10.8755 14.7236 10.8755 14.5712 11.0279C14.4188 11.1803 14.4188 11.4278 14.5712 11.5802L14.7187 11.7277L14.2837 12.1627L14.1362 12.0152C13.9838 11.8628 13.7363 11.8628 13.5839 12.0152C13.4315 12.1676 13.4315 12.4151 13.5839 12.5675L13.7314 12.715L13.2964 13.15L13.1489 13.0025C12.9965 12.8501 12.749 12.8501 12.5966 13.0025C12.4442 13.1549 12.4442 13.4024 12.5966 13.5548L12.7441 13.7023L12.3091 14.1373L12.1616 13.9898C12.0092 13.8374 11.7617 13.8374 11.6093 13.9898C11.4569 14.1422 11.4569 14.3897 11.6093 14.5421L11.7568 14.6896L11.5601 14.8863C11.4077 15.0387 11.4077 15.2861 11.5601 15.4385C11.7125 15.5909 11.9599 15.5909 12.1123 15.4385L12.3091 15.2418L12.4565 15.3893C12.6089 15.5417 12.8564 15.5417 13.0088 15.3893C13.1612 15.2369 13.1612 14.9894 13.0088 14.837L12.8613 14.6896L13.2964 14.2545L13.4438 14.402C13.5962 14.5544 13.8437 14.5544 13.9961 14.402C14.1485 14.2496 14.1485 14.0021 13.9961 13.8497L13.8486 13.7023L14.2837 13.2672L14.4311 13.4147C14.5835 13.5671 14.831 13.5671 14.9834 13.4147C15.1358 13.2623 15.1358 13.0148 14.9834 12.8624L14.8359 12.715L15.271 12.2799L15.4184 12.4274C15.5708 12.5798 15.8183 12.5798 15.9707 12.4274C16.1231 12.275 16.1231 12.0275 15.9707 11.8751L15.8232 11.7277ZM11.5759 18.0594C10.8769 18.1035 10.1858 18.0371 9.53125 17.8582C9.81202 17.5001 10.0348 17.1006 10.1923 16.6758L11.5759 18.0594Z" fill="white"/>
<path fill-rule="evenodd" clip-rule="evenodd" d="M3.81468 17.9187C3.34322 17.5285 2.96564 17.0123 2.73967 16.3969C2.51369 15.7815 2.46753 15.1436 2.57445 14.541C3.02034 14.9319 3.38646 15.4551 3.61435 16.0757C3.84223 16.6964 3.90169 17.3322 3.81468 17.9187ZM2.81769 13.7349C3.19453 12.8683 3.91118 12.1512 4.8674 11.8001C5.71779 11.4878 6.61105 11.5189 7.39487 11.8228C7.49241 11.8606 7.58826 11.9026 7.68212 11.9488C7.5213 12.6348 7.52896 13.392 7.73624 14.1438C7.77073 14.2688 7.81074 14.3938 7.85641 14.5181C8.17666 15.3903 8.72542 16.1012 9.38622 16.5898C9.00938 17.4564 8.29273 18.1735 7.3365 18.5246C6.38028 18.8757 5.36986 18.7928 4.52178 18.3759C4.70937 17.5758 4.66774 16.6787 4.34749 15.8065C4.02725 14.9344 3.47848 14.2235 2.81769 13.7349ZM8.38923 12.4059C8.86069 12.7962 9.23827 13.3124 9.46424 13.9278C9.69021 14.5432 9.73638 15.1811 9.62945 15.7837C9.18355 15.3928 8.81744 14.8696 8.58956 14.249C8.36167 13.6283 8.30222 12.9925 8.38923 12.4059Z" fill="white"/>
</svg>
