<svg width="20" height="20" viewBox="0 0 20 20" fill="none" xmlns="http://www.w3.org/2000/svg">
<path fill-rule="evenodd" clip-rule="evenodd" d="M13.3092 5.84762C13.6772 5.94609 13.9838 6.18035 14.1725 6.50727C14.5366 7.13809 14.36 7.93504 13.7881 8.35852L12.3767 5.91445C12.669 5.7877 12.9944 5.76324 13.3092 5.84758V5.84762ZM4.51124 15.078L6.48077 13.941L3.88604 9.45301L1.91933 10.5887C1.32276 10.9331 0.895108 11.4924 0.715459 12.1634C0.53542 12.8345 0.626006 13.5327 0.97042 14.1291C1.45022 14.9597 2.32323 15.4247 3.21976 15.4247C3.65909 15.4247 4.10409 15.313 4.51124 15.078ZM8.62015 17.6526L6.9662 14.7882L5.42245 15.6795L7.07601 18.544C7.32214 18.9696 7.86823 19.1159 8.29401 18.8702C8.4987 18.752 8.64558 18.5595 8.70772 18.3286C8.76948 18.0976 8.73843 17.8577 8.62015 17.6526V17.6526ZM14.7705 12.0133L9.70296 3.23637C9.59749 3.05332 9.42405 2.95297 9.21429 2.95297C9.21034 2.95297 9.2062 2.95316 9.20226 2.95316C8.98702 2.95711 8.81284 3.06406 8.7119 3.25445C8.53378 3.59059 8.36202 3.9493 8.1803 4.32914C7.41558 5.92637 6.55577 7.72192 4.7237 8.95024L7.3346 13.4672C9.31241 12.4963 11.2968 12.6492 13.0615 12.7855C13.482 12.8181 13.8787 12.8486 14.2593 12.8626C14.4749 12.8709 14.6542 12.7733 14.7651 12.5888C14.8764 12.4042 14.8781 12.1997 14.7706 12.0133L14.7705 12.0133ZM13.4966 3.00137C13.3619 3.23488 13.442 3.53352 13.6755 3.66836C13.7521 3.71281 13.8361 3.73391 13.919 3.73391C14.0877 3.73391 14.2521 3.64633 14.3423 3.48969L15.3511 1.74313C15.4857 1.50961 15.4057 1.21098 15.1722 1.07613C14.9385 0.941329 14.64 1.02133 14.5054 1.25484L13.4966 3.00137ZM19.3764 8.35688C19.3764 8.08742 19.1579 7.8686 18.8867 7.8686L16.8705 7.86879C16.6011 7.86879 16.3823 8.08742 16.3823 8.35707C16.3823 8.62672 16.6011 8.84535 16.8705 8.84535L18.8867 8.84516C19.1579 8.84516 19.3764 8.62672 19.3764 8.35688ZM18.2088 4.1768C18.0732 3.94328 17.7757 3.86328 17.5422 3.99809L15.7529 5.03078C15.5192 5.16582 15.4392 5.46426 15.574 5.69797C15.6646 5.85465 15.8286 5.94223 15.9973 5.94223C16.0802 5.94223 16.1642 5.92094 16.2412 5.87668L18.03 4.84379C18.2635 4.70895 18.3444 4.41031 18.2088 4.1768Z" fill="white"/>
</svg>
