<svg width="24" height="24" viewBox="0 0 24 24" fill="none" xmlns="http://www.w3.org/2000/svg">
<path d="M14.224 20.5363C12.1297 21.084 9.91042 20.8389 7.97511 19.846C6.02624 18.8462 4.5266 17.1659 3.75242 15.1148C3.03547 13.2152 2.98906 11.1932 3.6182 9.26746C4.08468 7.83953 4.91281 6.55226 6.00097 5.53848L5.80027 7.2041L6.96972 7.34508L7.41218 3.6736L3.78679 3.24496L3.64847 4.41473L5.27355 4.60692C4.0032 5.76648 3.03769 7.25152 2.49859 8.90171C2.15269 9.9605 1.98672 11.0597 2.00531 12.1688C2.02457 13.3164 2.2416 14.4476 2.65047 15.5308C3.528 17.8559 5.22808 19.7606 7.43749 20.8941C8.8655 21.6267 10.43 22.0001 12.0034 22.0001C12.8469 22.0001 13.6931 21.8927 14.5221 21.6759L14.224 20.5363Z" fill="black"/>
<path d="M21.394 15.4163C22.213 13.1741 22.1991 10.7074 21.3549 8.47068C20.4407 6.0485 18.6514 4.09956 16.3166 2.98284C13.9892 1.86972 11.3596 1.69581 8.91211 2.49323L9.27703 3.61319C11.4355 2.90991 13.755 3.06347 15.8083 4.0455C17.868 5.03057 19.4464 6.74983 20.2528 8.88666C20.9974 10.8595 21.0097 13.035 20.2875 15.0122C19.7164 16.5757 18.7169 17.9398 17.42 18.9503L17.6383 17.1388L16.4689 16.9978L16.0264 20.6693L19.6517 21.098L19.7901 19.9282L18.3034 19.7524C19.696 18.6206 20.7704 17.1233 21.394 15.4163Z" fill="black"/>
<path d="M15.279 9.87218C15.6186 9.44566 15.8222 8.90632 15.8222 8.32004C15.8222 6.94328 14.7021 5.82324 13.3254 5.82324C12.3946 5.82324 11.5817 6.33559 11.1523 7.09273C13.0555 7.2289 14.5623 8.82062 14.5623 10.7578C14.5623 11.1369 14.5028 11.5125 14.3886 11.8705C14.7753 12.1674 15.1156 12.5245 15.3977 12.9324C15.578 13.193 15.7294 13.4688 15.8524 13.7555L17.5444 13.7533V13.1651C17.5444 11.6648 16.6025 10.3806 15.279 9.87218Z" fill="black"/>
<path d="M12.8276 12.3259C13.1749 11.897 13.3835 11.3514 13.3835 10.7578C13.3835 9.38106 12.2634 8.26099 10.8866 8.26099C9.50988 8.26099 8.3898 9.38106 8.3898 10.7578C8.3898 11.3527 8.59926 11.8993 8.94777 12.3287C7.64965 12.8495 6.73047 14.1208 6.73047 15.6029V16.1918H15.0518V15.6029C15.0518 14.1182 14.1294 12.845 12.8276 12.3259Z" fill="black"/>
</svg>
