<svg width="24" height="24" viewBox="0 0 24 24" fill="none" xmlns="http://www.w3.org/2000/svg">
<path d="M9.77505 11.0445C10.4877 14.5298 10.8977 18.0755 11 21.6382C11.001 21.7217 10.9742 21.8029 10.9242 21.8678C10.8742 21.9328 10.804 21.9774 10.7259 21.9939C10.6478 22.0104 10.5666 21.9978 10.4964 21.9583C10.4262 21.9188 10.3714 21.8549 10.3414 21.7775C8.79765 17.6433 6.41187 13.9111 3.35021 10.8409C3.18725 10.6742 3.066 10.4681 2.99716 10.2408C2.92832 10.0135 2.91401 9.77186 2.9555 9.53735C2.99699 9.30285 3.093 9.08265 3.23504 8.89622C3.37709 8.70979 3.5608 8.56287 3.76994 8.46843L4.99481 7.92533L2.50745 5.82803C2.32338 5.6695 2.18129 5.46411 2.09481 5.23156C2.00833 4.999 1.98036 4.74707 2.01359 4.49994C2.04681 4.25281 2.14012 4.01877 2.28456 3.82026C2.429 3.62174 2.61973 3.46542 2.83845 3.36629L5.69087 2.1122C5.86263 2.03756 6.04695 1.99975 6.23291 2.00101C6.41887 2.00226 6.6027 2.04256 6.77352 2.11951C6.94435 2.19646 7.09871 2.30851 7.22746 2.44902C7.35621 2.58953 7.45675 2.75565 7.52312 2.93756C8.45881 5.5797 9.21141 8.28904 9.77505 11.0445Z" fill="black"/>
<path d="M13.9876 4.92834L12 3.92165L10.0124 4.92834C9.90553 4.98133 9.78716 5.006 9.66835 5.00003C9.54954 4.99407 9.43417 4.95768 9.33302 4.89425C9.23188 4.83082 9.14827 4.74244 9.09003 4.63738C9.03179 4.53231 9.00081 4.41399 9 4.2935V2.70837C9.00081 2.58787 9.03179 2.46955 9.09004 2.36449C9.14828 2.25942 9.23189 2.17104 9.33304 2.10762C9.43419 2.0442 9.54957 2.00781 9.66838 2.00185C9.78719 1.99589 9.90555 2.02057 10.0124 2.07357L12 3.08024L13.9876 2.07355C14.0945 2.02056 14.2128 1.99589 14.3317 2.00185C14.4505 2.00781 14.5658 2.04421 14.667 2.10763C14.7681 2.17106 14.8517 2.25944 14.91 2.3645C14.9682 2.46957 14.9992 2.58789 15 2.70838V4.29352C14.9992 4.41402 14.9683 4.53236 14.91 4.63744C14.8518 4.74252 14.7682 4.83091 14.667 4.89434C14.5659 4.95777 14.4505 4.99416 14.3317 5.00011C14.2128 5.00605 14.0945 4.98136 13.9876 4.92834Z" fill="black"/>
<path d="M21.4925 5.82819L19.0052 7.92569L20.2301 8.46883C20.4377 8.56266 20.6202 8.70821 20.7618 8.89281C20.9034 9.07741 20.9997 9.29546 21.0424 9.52797C21.0851 9.76048 21.0729 10.0004 21.0069 10.2268C20.9408 10.4533 20.8229 10.6594 20.6634 10.8272C17.5955 13.9008 15.205 17.6384 13.6585 21.7792C13.6283 21.8561 13.5734 21.9196 13.5033 21.9588C13.4332 21.9979 13.3523 22.0104 13.2744 21.9939C13.1965 21.9774 13.1265 21.933 13.0765 21.8684C13.0264 21.8038 12.9994 21.723 13 21.6398C13.182 15.2494 14.3563 8.93261 16.4769 2.93745C16.5433 2.75557 16.6439 2.58948 16.7726 2.44901C16.9014 2.30853 17.0557 2.1965 17.2266 2.11956C17.3974 2.04261 17.5812 2.0023 17.7671 2.00101C17.953 1.99972 18.1373 2.03747 18.3091 2.11204L21.1616 3.36622C21.3803 3.46537 21.571 3.62171 21.7155 3.82024C21.8599 4.01877 21.9532 4.25284 21.9864 4.49999C22.0196 4.74715 21.9917 4.99909 21.9052 5.23167C21.8187 5.46425 21.6766 5.66966 21.4925 5.82819Z" fill="black"/>
</svg>
