<svg width="24" height="24" viewBox="0 0 24 24" fill="none" xmlns="http://www.w3.org/2000/svg">
<path d="M4.28979 13.4072C4.17327 13.0861 3.81921 12.9206 3.49901 13.0375L2.40596 13.4364C2.16222 13.5254 2 13.7577 2 14.0177V21.3814C2 21.723 2.27623 22 2.61696 22H5.2898C5.36178 22 5.43318 21.9874 5.5008 21.9627L6.59389 21.5637C6.9141 21.4469 7.07915 21.0919 6.96263 20.7708L4.28979 13.4072Z" fill="black"/>
<path d="M21.9081 15.7507C21.603 14.9802 20.6455 14.6155 19.8372 14.962L17.0062 16.1754C17.0029 16.2979 16.9898 16.4217 16.9659 16.546C16.7074 17.894 15.3041 18.7974 13.8379 18.5597L9.79726 17.9047C9.4709 17.8518 9.25296 17.5656 9.31053 17.2655C9.36809 16.9655 9.67929 16.7651 10.0057 16.818L14.0463 17.4731C14.8622 17.6054 15.6402 17.1045 15.7841 16.3544C15.9279 15.6042 15.3832 14.8889 14.5673 14.7567L12.6386 14.444C12.0614 14.3505 11.5232 14.1492 11.0389 13.8458C9.63128 12.9642 7.83529 12.7575 6.23469 13.2931L5 13.7063L7.62287 20.3317L12.7063 20.9739C13.3285 21.0526 13.9514 20.9524 14.5076 20.6844L21.1853 17.4667C21.8595 17.1418 22.1685 16.4084 21.9081 15.7507Z" fill="black"/>
<path d="M11.7875 5H15.2126L15.9674 2.76001C16.0913 2.39225 15.847 2 15.4941 2H11.5059C11.153 2 10.9087 2.39225 11.0326 2.76001L11.7875 5Z" fill="black"/>
<path d="M11.7223 12.5328C11.53 12.2855 11.5513 11.917 11.7753 11.6984C12.0047 11.4745 12.3593 11.4933 12.5672 11.7404C12.8086 12.0272 13.1889 12.1983 13.5846 12.1983C13.9575 12.1983 14.2192 11.9635 14.2569 11.7364C14.3066 11.4365 13.8796 11.2421 13.7476 11.1897C13.1084 10.9358 12.5409 10.6638 12.517 10.6523C12.49 10.6394 12.464 10.6241 12.4393 10.6067C11.9903 10.2916 11.759 9.73891 11.8356 9.16443C11.9171 8.55345 12.3312 8.05597 12.9164 7.86615C14.0378 7.5023 14.9641 8.29432 15.0421 8.36359C15.0424 8.36383 15.0427 8.36408 15.043 8.36436C15.0443 8.36553 15.0459 8.36701 15.0467 8.36766L15.0465 8.36786C15.1687 8.47859 15.2466 8.64437 15.2466 8.82984C15.2466 9.16326 14.9955 9.43358 14.6859 9.43358C14.5485 9.43358 14.4228 9.38017 14.3253 9.29182L14.3251 9.29202L14.3286 9.29516C14.3234 9.29061 13.7998 8.84079 13.2398 9.02235C13.0017 9.09959 12.9547 9.26747 12.9455 9.33605C12.9393 9.38258 12.9361 9.49295 13.0248 9.57381C13.1753 9.64469 13.6386 9.85949 14.1356 10.0569C15.2 10.4797 15.4663 11.3113 15.3606 11.9487C15.2475 12.6309 14.7381 13.1618 14.0776 13.3406L14.7729 13.4726C15.4365 13.5986 16.0149 13.9953 16.4014 14.5898C16.4867 14.7209 16.5603 14.858 16.6221 15L19 13.8062V12.2106C19 10.8013 18.6363 9.42275 17.9483 8.22397C17.4429 7.34344 16.7782 6.58877 15.9973 6H10.9762C10.1953 6.58877 9.53064 7.34344 9.02525 8.22397C8.44469 9.23547 8.09509 10.3749 8 11.5529C8.16103 11.5391 8.32291 11.5318 8.48551 11.5318C9.639 11.5318 10.7532 11.8771 11.7223 12.5328Z" fill="black"/>
</svg>
