<svg width="24" height="25" viewBox="0 0 24 25" fill="none" xmlns="http://www.w3.org/2000/svg">
<path d="M10.3357 4.17335C8.97417 4.46298 7.71175 5.10286 6.6732 6.02975C5.63465 6.95665 4.85592 8.13848 4.41396 9.45847C3.97199 10.7785 3.88208 12.1909 4.15312 13.5563C4.42415 14.9217 5.04675 16.1927 5.95939 17.2438C6.0681 17.3745 6.13237 17.5364 6.1429 17.7061C6.15344 17.8758 6.10968 18.0444 6.01797 18.1876L5.65033 18.7799C5.57517 18.9011 5.53374 19.0401 5.53034 19.1826C5.52694 19.3251 5.56169 19.4659 5.63098 19.5905C5.70028 19.715 5.80161 19.8188 5.92449 19.8911C6.04736 19.9634 6.18732 20.0015 6.32987 20.0015H11.772C13.8395 20.0238 15.8383 19.2595 17.3634 17.8633C18.8885 16.4672 19.8259 14.5436 19.9859 12.4821C20.059 11.252 19.8472 10.0217 19.367 8.88681C18.8868 7.75196 18.1511 6.74326 17.2173 5.93924C16.2835 5.13522 15.1767 4.55758 13.9831 4.25129C12.7895 3.945 11.5413 3.91833 10.3357 4.17335ZM12.0017 6.9135C12.223 6.91352 12.4392 6.97914 12.6232 7.10206C12.8071 7.22499 12.9505 7.3997 13.0351 7.6041C13.1198 7.80851 13.1419 8.03342 13.0987 8.25041C13.0556 8.46739 12.949 8.66671 12.7926 8.82314C12.6361 8.97957 12.4368 9.0861 12.2198 9.12926C12.0028 9.17241 11.7779 9.15025 11.5735 9.06559C11.3691 8.98092 11.1944 8.83754 11.0715 8.65359C10.9486 8.46963 10.883 8.25336 10.883 8.03212C10.883 7.73544 11.0009 7.45091 11.2107 7.24113C11.4205 7.03135 11.705 6.9135 12.0017 6.9135ZM12.8964 16.3659H12.0017C11.9062 16.366 11.8117 16.3472 11.7234 16.3106C11.6352 16.2741 11.555 16.2205 11.4875 16.153C11.42 16.0855 11.3664 16.0053 11.3299 15.9171C11.2934 15.8289 11.2746 15.7343 11.2746 15.6388V11.8914H11.107C10.9142 11.8914 10.7292 11.8148 10.5929 11.6785C10.4565 11.5421 10.3799 11.3572 10.3799 11.1643C10.3799 10.9715 10.4565 10.7865 10.5929 10.6502C10.7292 10.5138 10.9142 10.4372 11.107 10.4372H12.0017C12.0972 10.4372 12.1918 10.456 12.28 10.4925C12.3682 10.529 12.4484 10.5826 12.5159 10.6501C12.5834 10.7176 12.637 10.7978 12.6735 10.886C12.7101 10.9743 12.7289 11.0688 12.7288 11.1643V14.9117H12.8964C13.0892 14.9117 13.2742 14.9883 13.4105 15.1247C13.5469 15.261 13.6235 15.446 13.6235 15.6388C13.6235 15.8317 13.5469 16.0166 13.4105 16.153C13.2742 16.2893 13.0892 16.3659 12.8964 16.3659Z" fill="#131313"/>
</svg>
