<svg width="18" height="18" viewBox="0 0 18 18" fill="none" xmlns="http://www.w3.org/2000/svg">
<g clip-path="url(#clip0_578_4942)">
<path d="M8.47173 8.47171V5.26684H5.14173C4.96176 6.21238 4.85044 7.28161 4.82617 8.47171H8.47173Z" fill="white"/>
<path d="M8.47204 4.21028V0.030426C7.23556 0.338868 6.05377 1.75186 5.38477 4.21028H8.47204Z" fill="white"/>
<path d="M3.77055 9.52826H0C0.0642031 10.6354 0.329573 11.7059 0.77896 12.6979H4.06913C3.89603 11.722 3.79538 10.6605 3.77055 9.52826Z" fill="white"/>
<path d="M0 8.47171H3.76946C3.79179 7.32606 3.89181 6.25242 4.06663 5.26684H0.79516C0.336054 6.26873 0.0649427 7.35148 0 8.47171Z" fill="white"/>
<path d="M9.52734 0.0348282V4.21028H12.6055C12.3523 3.28974 12.0491 2.59714 11.7693 2.0914C11.1437 0.960789 10.3624 0.24959 9.52734 0.0348282Z" fill="white"/>
<path d="M8.47252 9.52826H4.82812C4.85584 10.7605 4.97375 11.8098 5.14252 12.6979H8.47256L8.47252 9.52826Z" fill="white"/>
<path d="M12.6943 1.57989C13.1115 2.33381 13.447 3.21744 13.6973 4.21028H16.6319C16.2748 3.64598 15.8522 3.11668 15.3676 2.63208C14.3856 1.65008 13.2203 0.922438 11.9512 0.480835C12.2186 0.802379 12.4671 1.16914 12.6943 1.57989Z" fill="white"/>
<path d="M13.1718 8.47171C13.1437 7.22301 13.0229 6.16244 12.8506 5.26684H9.52734V8.47171H13.1718Z" fill="white"/>
<path d="M13.717 13.7545C13.4662 14.7686 13.1266 15.6697 12.7018 16.436C12.4798 16.8366 12.2373 17.195 11.9766 17.5103C13.2358 17.0678 14.3921 16.3433 15.3675 15.3679C15.8621 14.8733 16.2919 14.3319 16.6536 13.7545H13.717Z" fill="white"/>
<path d="M4.29088 4.21029C4.54086 3.21058 4.87744 2.32149 5.2972 1.56415C5.51933 1.16344 5.76181 0.804951 6.0226 0.489571C4.76333 0.932019 3.60693 1.6566 2.63149 2.63204C2.14689 3.11665 1.72427 3.64595 1.36719 4.21025L4.29088 4.21029Z" fill="white"/>
<path d="M13.9258 5.26684C14.1028 6.25246 14.2058 7.32574 14.2309 8.47171H18.0014C17.9364 7.35148 17.6653 6.26873 17.2062 5.26684H13.9258Z" fill="white"/>
<path d="M5.30506 16.4202C4.88297 15.6574 4.54455 14.7617 4.2933 13.7545H1.3457C1.7074 14.3319 2.13717 14.8733 2.63177 15.3679C3.61373 16.3498 4.77907 17.0775 6.04817 17.5191C5.78072 17.1976 5.53229 16.8309 5.30506 16.4202Z" fill="white"/>
<path d="M9.52734 9.52826V12.6979H12.8641C13.0402 11.761 13.1491 10.7036 13.173 9.52826H9.52734Z" fill="white"/>
<path d="M17.9998 9.52826H14.2304C14.2084 10.6603 14.1104 11.722 13.9395 12.6979H17.2208C17.6702 11.7059 17.9356 10.6354 17.9998 9.52826Z" fill="white"/>
<path d="M9.52734 13.7545V17.9696C10.7698 17.6597 11.9572 16.2349 12.6245 13.7545H9.52734Z" fill="white"/>
<path d="M8.47247 17.9652V13.7545H5.38477C5.63989 14.6927 5.94724 15.3966 6.2306 15.9087C6.85615 17.0392 7.63747 17.7504 8.47247 17.9652Z" fill="white"/>
</g>
<defs>
<clipPath id="clip0_578_4942">
<rect width="18" height="18" fill="white"/>
</clipPath>
</defs>
</svg>
