<svg width="20" height="20" viewBox="0 0 20 20" fill="none" xmlns="http://www.w3.org/2000/svg">
<path d="M8.14522 9.20376C8.7391 12.1082 9.08075 15.0629 9.16599 18.0318C9.16689 18.1014 9.14455 18.1691 9.10285 18.2232C9.06114 18.2773 9.00268 18.3145 8.93758 18.3282C8.87249 18.342 8.80484 18.3315 8.74634 18.2986C8.68784 18.2657 8.64216 18.2124 8.61721 18.148C7.33072 14.7028 5.34257 11.5926 2.79119 9.03405C2.65539 8.8952 2.55435 8.72346 2.49698 8.53401C2.43961 8.34455 2.42769 8.14322 2.46226 7.9478C2.49684 7.75238 2.57685 7.56888 2.69522 7.41352C2.81359 7.25817 2.96668 7.13573 3.14096 7.05703L4.16169 6.60445L2.08889 4.8567C1.9355 4.72459 1.81709 4.55344 1.74502 4.35964C1.67295 4.16584 1.64965 3.9559 1.67734 3.74996C1.70503 3.54402 1.78278 3.34898 1.90315 3.18355C2.02352 3.01813 2.18245 2.88786 2.36472 2.80525L4.74174 1.76018C4.88488 1.69798 5.03847 1.66647 5.19344 1.66751C5.3484 1.66856 5.5016 1.70214 5.64395 1.76626C5.78631 1.83039 5.91494 1.92376 6.02223 2.04086C6.12953 2.15795 6.2133 2.29639 6.26861 2.44798C7.04836 4.64976 7.67552 6.90754 8.14522 9.20376Z" fill="white"/>
<path d="M11.6564 4.10696L10 3.26805L8.34364 4.10696C8.25461 4.15111 8.15597 4.17167 8.05696 4.1667C7.95795 4.16174 7.86181 4.1314 7.77752 4.07855C7.69323 4.02569 7.62356 3.95204 7.57503 3.86449C7.52649 3.77693 7.50068 3.67834 7.5 3.57792V2.25698C7.50068 2.15657 7.52649 2.05797 7.57503 1.97041C7.62357 1.88286 7.69324 1.80921 7.77753 1.75636C7.86182 1.70351 7.95797 1.67318 8.05698 1.66822C8.15599 1.66325 8.25463 1.68381 8.34365 1.72798L10 2.56687L11.6564 1.72796C11.7454 1.6838 11.844 1.66325 11.943 1.66822C12.0421 1.67318 12.1382 1.70351 12.2225 1.75637C12.3068 1.80922 12.3764 1.88287 12.425 1.97043C12.4735 2.05798 12.4993 2.15658 12.5 2.25699V3.57794C12.4993 3.67836 12.4735 3.77697 12.425 3.86454C12.3765 3.95211 12.3068 4.02577 12.2225 4.07863C12.1382 4.13148 12.0421 4.16181 11.943 4.16677C11.844 4.17172 11.7454 4.15114 11.6564 4.10696Z" fill="white"/>
<path d="M17.9111 4.85683L15.8383 6.60475L16.8591 7.05737C17.032 7.13556 17.1841 7.25685 17.3021 7.41068C17.4201 7.56452 17.5004 7.74622 17.536 7.93998C17.5716 8.13374 17.5614 8.33367 17.5064 8.52237C17.4513 8.71107 17.3531 8.88282 17.2201 9.02265C14.6636 11.584 12.6715 14.6987 11.3828 18.1493C11.3575 18.2134 11.3118 18.2663 11.2534 18.299C11.195 18.3316 11.1275 18.342 11.0626 18.3282C10.9977 18.3145 10.9394 18.2775 10.8977 18.2237C10.856 18.1699 10.8335 18.1025 10.834 18.0332C10.9856 12.7078 11.9642 7.44385 13.7314 2.44788C13.7867 2.29632 13.8705 2.15791 13.9778 2.04085C14.0851 1.92378 14.2138 1.83043 14.3561 1.7663C14.4985 1.70218 14.6516 1.66859 14.8066 1.66751C14.9615 1.66644 15.1151 1.6979 15.2582 1.76004L17.6353 2.80519C17.8176 2.88781 17.9765 3.0181 18.0969 3.18354C18.2172 3.34899 18.295 3.54404 18.3227 3.75C18.3504 3.95596 18.327 4.16592 18.255 4.35973C18.1829 4.55355 18.0645 4.72472 17.9111 4.85683Z" fill="white"/>
</svg>
