<svg width="24" height="24" viewBox="0 0 24 24" fill="none" xmlns="http://www.w3.org/2000/svg">
<path fill-rule="evenodd" clip-rule="evenodd" d="M12.2724 3.23498C10.5668 3.17818 8.84358 3.64351 7.35584 4.63658C5.68491 5.75311 4.51718 7.40191 3.97931 9.24511C3.83078 9.22698 3.65291 9.23498 3.44171 9.29471C2.65318 9.51845 2.06011 10.1646 1.79344 10.7336C1.44758 11.4752 1.30171 12.456 1.45558 13.4686C1.60838 14.4779 2.03478 15.3099 2.56811 15.8264C3.10304 16.3432 3.70704 16.5112 4.30704 16.3851C5.20038 16.1944 5.64331 16.0518 5.51824 15.2195L4.91264 11.1851C5.03478 9.00165 6.16518 6.94618 8.05584 5.68218C10.5865 3.99178 13.9044 4.10005 16.3182 5.95311C17.9974 7.24058 18.9724 9.16965 19.0849 11.1947L18.6614 14.0168C17.7169 16.6016 15.3753 18.392 12.6657 18.6462H10.8614C10.3958 18.6462 10.0209 19.0211 10.0209 19.4862V19.9294C10.0209 20.3947 10.3958 20.7696 10.8614 20.7696H13.1364C13.6017 20.7696 13.975 20.3947 13.975 19.9294V19.6976C16.0182 19.199 17.8017 17.9432 18.963 16.192L19.6918 16.3854C20.2849 16.5392 20.8961 16.3432 21.4308 15.8267C21.9641 15.3099 22.3902 14.4782 22.5433 13.4688C22.6977 12.4563 22.5476 11.4771 22.2057 10.7339C21.8625 9.99071 21.3513 9.51871 20.7612 9.34938C20.514 9.27818 20.2457 9.25205 20.0156 9.24511C19.5292 7.57845 18.5278 6.06271 17.0846 4.95605C15.6657 3.86725 13.978 3.29098 12.2724 3.23498Z" fill="black"/>
<path fill-rule="evenodd" clip-rule="evenodd" d="M14.9345 10.4931C15.5358 10.4931 16.0233 10.9806 16.0246 11.5835C16.0233 12.1849 15.5358 12.6737 14.9345 12.6737C14.3315 12.6737 13.8427 12.1849 13.8427 11.5835C13.8427 10.9809 14.3318 10.4931 14.9345 10.4931ZM11.9985 10.4931C12.6011 10.4931 13.0886 10.9806 13.0886 11.5835C13.0886 12.1849 12.6011 12.6737 11.9985 12.6737C11.3953 12.6737 10.9078 12.1849 10.9078 11.5835C10.9078 10.9809 11.3953 10.4931 11.9985 10.4931ZM9.06354 10.4931C9.66488 10.4931 10.1537 10.9806 10.1537 11.5835C10.1537 12.1849 9.66488 12.6737 9.06354 12.6737C8.46088 12.6737 7.97314 12.1849 7.97314 11.5835C7.97314 10.9809 8.46088 10.4931 9.06354 10.4931ZM11.9985 5.80994C8.80114 5.80994 6.22461 8.30167 6.22461 11.5835C6.22461 13.1598 6.82061 14.5529 7.79154 15.575L7.44701 17.1195C7.33341 17.6278 7.68594 17.9697 8.14274 17.7153L9.65101 16.8739C10.3678 17.1851 11.1606 17.3571 11.9985 17.3571C15.1969 17.3571 17.7718 14.867 17.7718 11.5835C17.7718 8.30167 15.1969 5.80994 11.9985 5.80994Z" fill="black"/>
</svg>
