<svg width="20" height="20" viewBox="0 0 20 20" fill="none" xmlns="http://www.w3.org/2000/svg">
<path d="M3.33125 16.5813C3.34375 16.5969 3.35625 16.6125 3.37188 16.6281C3.38438 16.6406 3.4 16.6531 3.41563 16.6625C3.41563 16.6625 3.41875 16.6688 3.42188 16.6688C5.10313 18.3281 7.4 19.3563 9.9375 19.3687C9.94687 19.3719 9.95625 19.3719 9.96875 19.3719C9.97812 19.375 9.99063 19.375 10 19.375C10.0094 19.375 10.0219 19.375 10.0312 19.3719C10.0437 19.3719 10.0531 19.3719 10.0625 19.3687C12.6125 19.3563 14.9219 18.3156 16.6031 16.6469C16.6125 16.6406 16.6188 16.6344 16.625 16.6281C16.6406 16.6125 16.6531 16.5969 16.6656 16.5813C18.3438 14.8875 19.375 12.5625 19.375 10V9.99687C19.375 7.43437 18.3406 5.10938 16.6656 3.41875C16.6531 3.40312 16.6406 3.3875 16.625 3.375C16.6219 3.36875 16.6156 3.3625 16.6094 3.35938C16.6094 3.35729 16.6083 3.35625 16.6062 3.35625C14.9125 1.66875 12.575 0.625 10 0.625C7.425 0.625 5.11562 1.65625 3.42188 3.32812C3.42188 3.32812 3.42187 3.33125 3.41875 3.33125C3.40312 3.34375 3.3875 3.35625 3.37188 3.37188C3.35625 3.3875 3.34375 3.40312 3.33125 3.41875C3.33125 3.42187 3.32812 3.42188 3.32812 3.42188C1.65625 5.1125 0.625 7.4375 0.625 9.99687V10C0.625 12.5625 1.65625 14.8844 3.32812 16.5781C3.32812 16.5781 3.33125 16.5781 3.33125 16.5813ZM10.3125 18.7375V16.5813C11.8531 16.5125 13.2969 15.9156 14.4344 14.8812L15.9563 16.4C14.4656 17.7906 12.4875 18.6656 10.3125 18.7375ZM16.4 4.04063C17.7906 5.53125 18.6656 7.50938 18.7406 9.68437H16.5781C16.5094 8.14375 15.9125 6.7 14.8781 5.5625L16.4 4.04063ZM9.6875 1.25625V3.41563C8.15 3.4875 6.70625 4.08437 5.5625 5.12187L4.04063 3.6C5.53125 2.20938 7.50938 1.33125 9.6875 1.25625ZM5.77812 5.78125C6.90312 4.6625 8.39062 4.04375 9.96875 4.03437H9.975C9.98438 4.0375 9.99063 4.0375 10 4.0375C10.0094 4.0375 10.0156 4.0375 10.025 4.03437H10.0312C11.6062 4.04375 13.0875 4.65625 14.2031 5.76562L14.2062 5.76875C14.2094 5.77187 14.2156 5.77812 14.2188 5.78125C14.2219 5.78438 14.2281 5.79063 14.2281 5.79375C15.3469 6.91563 15.9625 8.40938 15.9625 9.99687C15.9625 11.5844 15.3438 13.0906 14.2188 14.2188L14.2156 14.2219C13.0969 15.3375 11.6125 15.9563 10.0312 15.9656H10.025C10.0156 15.9625 10.0094 15.9625 10 15.9625C9.99063 15.9625 9.98438 15.9625 9.975 15.9656H9.96875C8.39062 15.9563 6.90312 15.3375 5.77812 14.2188C4.65312 13.0906 4.03437 11.5906 4.03437 9.99687C4.03437 8.40312 4.65312 6.90625 5.77812 5.78125ZM3.41875 10.3094C3.4875 11.85 4.08437 13.2937 5.12187 14.4375L3.6 15.9594C2.20938 14.4688 1.33125 12.4906 1.25938 10.3094H3.41875Z" fill="white"/>
<path d="M8.59727 12.6031C8.87227 12.6031 9.14727 12.5563 9.40664 12.4594L8.88477 13.8844C8.85039 13.9813 8.86289 14.0875 8.92227 14.1719C8.98164 14.2531 9.07539 14.3031 9.17852 14.3031H10.8223C10.9254 14.3031 11.0223 14.2531 11.0785 14.1719C11.1379 14.0875 11.1504 13.9813 11.116 13.8844L10.5941 12.4594C11.4254 12.7656 12.3973 12.5844 13.0566 11.9219C13.9535 11.0281 13.966 9.55938 13.0816 8.64688L10.2223 5.7875C10.1035 5.66875 9.89727 5.66875 9.77852 5.7875L6.92227 8.64688C6.92018 8.64688 6.9181 8.64792 6.91602 8.65C6.49414 9.0875 6.25977 9.66563 6.25977 10.2719C6.26289 10.8969 6.50352 11.4844 6.94414 11.9219C7.39727 12.375 7.99727 12.6031 8.59727 12.6031Z" fill="white"/>
</svg>
