<svg width="24" height="24" viewBox="0 0 24 24" fill="none" xmlns="http://www.w3.org/2000/svg">
<path fill-rule="evenodd" clip-rule="evenodd" d="M15.5289 7.38075C15.9213 7.4903 16.2483 7.75089 16.4496 8.11456C16.838 8.8163 16.6496 9.70285 16.0396 10.1739L14.5343 7.4551C14.846 7.31409 15.1931 7.28689 15.5289 7.38071V7.38075ZM6.14502 17.6488L8.2457 16.384L5.4782 11.3915L3.38051 12.6549C2.74423 13.038 2.28809 13.6602 2.09648 14.4065C1.90445 15.1531 2.00107 15.9298 2.36842 16.5933C2.88018 17.5173 3.81132 18.0345 4.76754 18.0345C5.23613 18.0345 5.71076 17.9103 6.14502 17.6488ZM10.5275 20.5129L8.76346 17.3265L7.11691 18.3179L8.88057 21.5045C9.1431 21.978 9.72556 22.1407 10.1797 21.8674C10.398 21.7358 10.5547 21.5217 10.6209 21.2649C10.6868 21.0079 10.6537 20.741 10.5275 20.5129V20.5129ZM17.0874 14.2396L11.6825 4.47594C11.57 4.27231 11.385 4.16068 11.1612 4.16068C11.157 4.16068 11.1526 4.1609 11.1484 4.1609C10.9188 4.16529 10.7331 4.28426 10.6254 4.49606C10.4354 4.86998 10.2522 5.26902 10.0584 5.69156C9.24276 7.46835 8.3257 9.46576 6.37163 10.8322L9.15639 15.857C11.2659 14.7769 13.3825 14.947 15.2646 15.0987C15.7131 15.1349 16.1363 15.1688 16.5422 15.1844C16.7722 15.1936 16.9634 15.0851 17.0817 14.8798C17.2004 14.6745 17.2022 14.447 17.0876 14.2396L17.0874 14.2396ZM15.7287 4.21452C15.5851 4.47429 15.6705 4.80649 15.9195 4.9565C16.0013 5.00595 16.0908 5.02941 16.1792 5.02941C16.3592 5.02941 16.5345 4.93199 16.6307 4.75774L17.7067 2.81482C17.8503 2.55505 17.7649 2.22285 17.5159 2.07284C17.2666 1.92288 16.9483 2.01188 16.8047 2.27165L15.7287 4.21452ZM22 10.1721C22 9.87236 21.767 9.62893 21.4778 9.62893L19.3273 9.62915C19.0399 9.62915 18.8065 9.87236 18.8065 10.1723C18.8065 10.4723 19.0399 10.7155 19.3273 10.7155L21.4778 10.7153C21.767 10.7153 22 10.4723 22 10.1721ZM20.7547 5.52209C20.6101 5.26233 20.2927 5.17333 20.0437 5.32329L18.1353 6.47208C17.886 6.62231 17.8007 6.95429 17.9445 7.21428C18.0411 7.38857 18.216 7.486 18.396 7.486C18.4843 7.486 18.5739 7.46231 18.6561 7.41308L20.5639 6.26407C20.813 6.11407 20.8993 5.78186 20.7547 5.52209Z" fill="black"/>
</svg>
