<svg width="24" height="24" viewBox="0 0 24 24" fill="none" xmlns="http://www.w3.org/2000/svg">
<path fill-rule="evenodd" clip-rule="evenodd" d="M2.60227 13.0324C2.04101 12.0386 1.69316 10.9086 1.62109 9.70479H4.42202C4.2922 11.0517 3.6087 12.2377 2.60227 13.0324ZM5.36291 9.70479H8.87513V13.1954C7.81461 12.8653 6.64134 12.8683 5.51914 13.2804C4.79359 13.5468 4.16241 13.9573 3.64609 14.4678C3.45737 14.2624 3.27961 14.0468 3.11373 13.8219C4.3758 12.8559 5.228 11.3809 5.36291 9.70479ZM4.42202 8.76759H1.62109C1.69316 7.56377 2.04101 6.43376 2.60227 5.43995C3.60868 6.23471 4.2922 7.42072 4.42202 8.76759ZM3.11373 4.65049C4.4362 2.85756 6.51366 1.65492 8.87513 1.51355V8.76759H5.36291C5.228 7.09148 4.3758 5.61648 3.11373 4.65049ZM9.81234 1.51355C12.1738 1.65492 14.2513 2.85756 15.5737 4.65049C14.3117 5.61648 13.4595 7.09148 13.3245 8.76759H9.81234V1.51355ZM9.81234 9.70479H13.3245C13.368 10.245 13.486 10.7643 13.6682 11.2524C13.3553 11.501 13.0523 11.7707 12.7615 12.0616C12.0329 12.7901 11.4369 13.5948 10.9743 14.4416C10.6263 14.1038 10.2346 13.8179 9.81234 13.59V9.70479ZM16.0852 5.43995C16.6464 6.43376 16.9943 7.56377 17.0664 8.76759H14.2654C14.3953 7.42072 15.0788 6.23471 16.0852 5.43995ZM14.2654 9.70479H16.3756C15.7188 9.95523 15.0764 10.2805 14.4627 10.6801C14.3648 10.3674 14.2978 10.0411 14.2654 9.70479Z" fill="#131313"/>
<path fill-rule="evenodd" clip-rule="evenodd" d="M22.2105 14.3603C21.8664 16.0101 21.0151 17.6354 19.6741 18.9764C18.3331 20.3174 16.7078 21.1687 15.058 21.5128L12.5013 18.9561C12.6245 18.1253 12.5491 17.2532 12.2429 16.4095C12.2406 16.4031 12.2383 16.3968 12.2359 16.3904C12.0794 15.964 11.873 15.5701 11.6258 15.2131C12.0672 14.3243 12.667 13.4792 13.4219 12.7243C13.634 12.5122 13.8531 12.3124 14.0783 12.125C14.3234 11.9209 14.5757 11.7315 14.8339 11.5567C15.5159 11.095 16.2388 10.7358 16.9784 10.4805C17.3288 10.3595 17.6828 10.262 18.038 10.1879L22.2105 14.3603ZM19.205 10.0294C20.1731 9.96827 21.1286 10.0838 22.0186 10.3797C22.3145 11.2698 22.4301 12.2252 22.3689 13.1934L19.205 10.0294ZM18.9879 14.0732L19.2239 13.8371C19.4068 13.6542 19.4068 13.3573 19.2239 13.1744C19.041 12.9915 18.7441 12.9915 18.5612 13.1744L18.3251 13.4105L18.1482 13.2335C17.9653 13.0506 17.6684 13.0506 17.4855 13.2335C17.3026 13.4164 17.3026 13.7134 17.4855 13.8962L17.6624 14.0732L17.1404 14.5952L16.9634 14.4183C16.7805 14.2354 16.4836 14.2354 16.3007 14.4183C16.1178 14.6012 16.1178 14.8981 16.3007 15.081L16.4777 15.2579L15.9556 15.78L15.7787 15.603C15.5958 15.4202 15.2988 15.4202 15.116 15.603C14.9331 15.7859 14.9331 16.0829 15.116 16.2657L15.2929 16.4427L14.7709 16.9647L14.5939 16.7878C14.411 16.6049 14.1141 16.6049 13.9312 16.7878C13.7483 16.9707 13.7483 17.2676 13.9312 17.4505L14.1082 17.6275L13.8721 17.8635C13.6892 18.0464 13.6892 18.3434 13.8721 18.5262C14.055 18.7091 14.3519 18.7091 14.5348 18.5262L14.7709 18.2902L14.9478 18.4671C15.1307 18.65 15.4277 18.65 15.6106 18.4671C15.7934 18.2842 15.7934 17.9873 15.6106 17.8044L15.4336 17.6275L15.9556 17.1054L16.1326 17.2824C16.3155 17.4652 16.6124 17.4652 16.7953 17.2824C16.9782 17.0995 16.9782 16.8025 16.7953 16.6197L16.6183 16.4427L17.1404 15.9207L17.3174 16.0976C17.5002 16.2805 17.7972 16.2805 17.9801 16.0976C18.1629 15.9147 18.1629 15.6178 17.9801 15.4349L17.8031 15.2579L18.3251 14.7359L18.5021 14.9129C18.685 15.0957 18.9819 15.0957 19.1648 14.9129C19.3477 14.73 19.3477 14.433 19.1648 14.2502L18.9879 14.0732ZM13.8911 21.6712C13.0523 21.7242 12.223 21.6445 11.4375 21.4299C11.7744 21.0001 12.0418 20.5207 12.2307 20.0109L13.8911 21.6712Z" fill="#131313"/>
<path fill-rule="evenodd" clip-rule="evenodd" d="M4.57762 21.5025C4.01187 21.0342 3.55877 20.4148 3.2876 19.6763C3.01643 18.9378 2.96104 18.1723 3.08934 17.4492C3.62441 17.9182 4.06376 18.5461 4.33722 19.2909C4.61067 20.0356 4.68203 20.7986 4.57762 21.5025ZM3.38123 16.4818C3.83344 15.4419 4.69341 14.5814 5.84088 14.1601C6.86135 13.7854 7.93326 13.8226 8.87384 14.1873C8.9909 14.2327 9.10592 14.2831 9.21855 14.3385C9.02556 15.1617 9.03475 16.0704 9.28349 16.9725C9.32487 17.1226 9.37289 17.2725 9.42769 17.4218C9.81199 18.4684 10.4705 19.3214 11.2635 19.9078C10.8113 20.9477 9.95128 21.8082 8.8038 22.2296C7.65633 22.6509 6.44383 22.5513 5.42613 22.0511C5.65124 21.0909 5.60129 20.0145 5.21699 18.9678C4.8327 17.9212 4.17417 17.0682 3.38123 16.4818ZM10.0671 14.8871C10.6328 15.3554 11.0859 15.9748 11.3571 16.7133C11.6283 17.4519 11.6837 18.2173 11.5553 18.9404C11.0203 18.4714 10.5809 17.8435 10.3075 17.0987C10.034 16.354 9.96266 15.591 10.0671 14.8871Z" fill="#131313"/>
</svg>
