<svg width="24" height="24" viewBox="0 0 24 24" fill="none" xmlns="http://www.w3.org/2000/svg">
<path d="M4.88667 19.02C4.9 19.0367 4.91333 19.0533 4.93 19.07C4.94333 19.0833 4.96 19.0967 4.97667 19.1067C4.97667 19.1067 4.98 19.1133 4.98333 19.1133C6.77667 20.8833 9.22667 21.98 11.9333 21.9933C11.9433 21.9967 11.9533 21.9967 11.9667 21.9967C11.9767 22 11.99 22 12 22C12.01 22 12.0233 22 12.0333 21.9967C12.0467 21.9967 12.0567 21.9967 12.0667 21.9933C14.7867 21.98 17.25 20.87 19.0433 19.09C19.0533 19.0833 19.06 19.0767 19.0667 19.07C19.0833 19.0533 19.0967 19.0367 19.11 19.02C20.9 17.2133 22 14.7333 22 12V11.9967C22 9.26333 20.8967 6.78333 19.11 4.98C19.0967 4.96333 19.0833 4.94667 19.0667 4.93333C19.0633 4.92667 19.0567 4.92 19.05 4.91667C19.05 4.91444 19.0489 4.91333 19.0467 4.91333C17.24 3.11333 14.7467 2 12 2C9.25333 2 6.79 3.1 4.98333 4.88333C4.98333 4.88333 4.98333 4.88667 4.98 4.88667C4.96333 4.9 4.94667 4.91333 4.93 4.93C4.91333 4.94667 4.9 4.96333 4.88667 4.98C4.88667 4.98333 4.88333 4.98333 4.88333 4.98333C3.1 6.78667 2 9.26667 2 11.9967V12C2 14.7333 3.1 17.21 4.88333 19.0167C4.88333 19.0167 4.88667 19.0167 4.88667 19.02ZM12.3333 21.32V19.02C13.9767 18.9467 15.5167 18.31 16.73 17.2067L18.3533 18.8267C16.7633 20.31 14.6533 21.2433 12.3333 21.32ZM18.8267 5.64333C20.31 7.23333 21.2433 9.34333 21.3233 11.6633H19.0167C18.9433 10.02 18.3067 8.48 17.2033 7.26667L18.8267 5.64333ZM11.6667 2.67333V4.97667C10.0267 5.05333 8.48667 5.69 7.26667 6.79667L5.64333 5.17333C7.23333 3.69 9.34333 2.75333 11.6667 2.67333ZM7.49667 7.5C8.69667 6.30667 10.2833 5.64667 11.9667 5.63667H11.9733C11.9833 5.64 11.99 5.64 12 5.64C12.01 5.64 12.0167 5.64 12.0267 5.63667H12.0333C13.7133 5.64667 15.2933 6.3 16.4833 7.48333L16.4867 7.48667C16.49 7.49 16.4967 7.49667 16.5 7.5C16.5033 7.50333 16.51 7.51 16.51 7.51333C17.7033 8.71 18.36 10.3033 18.36 11.9967C18.36 13.69 17.7 15.2967 16.5 16.5L16.4967 16.5033C15.3033 17.6933 13.72 18.3533 12.0333 18.3633H12.0267C12.0167 18.36 12.01 18.36 12 18.36C11.99 18.36 11.9833 18.36 11.9733 18.3633H11.9667C10.2833 18.3533 8.69667 17.6933 7.49667 16.5C6.29667 15.2967 5.63667 13.6967 5.63667 11.9967C5.63667 10.2967 6.29667 8.7 7.49667 7.5ZM4.98 12.33C5.05333 13.9733 5.69 15.5133 6.79667 16.7333L5.17333 18.3567C3.69 16.7667 2.75333 14.6567 2.67667 12.33H4.98Z" fill="#131313"/>
<path d="M10.5009 15.0243C10.7951 15.0243 11.0893 14.9699 11.3668 14.8573L10.8085 16.5133C10.7717 16.6259 10.7851 16.7494 10.8486 16.8475C10.9121 16.9419 11.0124 17 11.1227 17H12.8814C12.9917 17 13.0953 16.9419 13.1555 16.8475C13.219 16.7494 13.2324 16.6259 13.1956 16.5133L12.6373 14.8573C13.5266 15.2132 14.5664 15.0025 15.2719 14.2326C16.2315 13.1939 16.2448 11.487 15.2986 10.4265L12.2394 7.1035C12.1124 6.9655 11.8917 6.9655 11.7647 7.1035L8.7088 10.4265C8.70657 10.4265 8.70434 10.4278 8.70211 10.4302C8.25075 10.9386 8 11.6105 8 12.3151C8.00334 13.0414 8.26078 13.7242 8.7322 14.2326C9.217 14.7592 9.85893 15.0243 10.5009 15.0243Z" fill="#131313"/>
</svg>
