<svg width="230" height="42" viewBox="0 0 230 42" fill="none" xmlns="http://www.w3.org/2000/svg">
<path d="M0 8.96885H14.3878L15.217 25.4229L25.9149 8.96885H34.0422L17.0211 32.9507H9.32944L6.7587 12.2669L0 8.96885Z" fill="#1CD4FF"/>
<path d="M35.6591 8.96885L28.9004 32.9507H36.1976L41.9196 12.0875L35.6591 8.96885Z" fill="#1CD4FF"/>
<path d="M45.1133 9.18368L47.6009 32.9507H55.3543L72.5203 8.96885H64.3107L53.5304 25.5661L52.5348 8.96885L45.1133 9.18368Z" fill="#1CD4FF"/>
<path d="M61.7402 32.9507L78.6164 8.96885H86.5353L89.8941 32.9507H82.3894L82.0987 29.1152L73.7236 29.0798L77.331 24.3375H81.5602L80.7721 15.5287L69.287 32.9507H61.7402Z" fill="#1CD4FF"/>
<path d="M132.768 14.4417L141.351 9.0646H154.039C154.039 9.0646 160.963 9.45885 161.171 15.6623C161.378 21.8657 155.242 25.7351 151.966 25.9507C148.689 26.1663 143.963 26.1655 143.963 26.1655L144.045 25.6997L148.026 20.8954L150.68 20.7884C150.68 20.7884 152.96 20.609 153.665 17.6159C153.789 15.1956 151.468 14.6228 151.468 14.6228L132.768 14.4417Z" fill="#49D232"/>
<path d="M145.58 17.6143L141.35 32.76H133.846L138.407 17.6143H145.58Z" fill="#49D232"/>
<path d="M165.37 9.0646L158.57 32.76H174.105L178.529 27.1914L167.472 27.0956L172.723 9.0646H165.37Z" fill="#49D232"/>
<path d="M175.766 32.76L192.932 8.86103H200.672L204.209 32.76H196.58L196.248 29.1031L187.79 29.1747L191.687 24.2176H195.668L194.922 15.4097L183.478 32.76H175.766Z" fill="#49D232"/>
<path d="M203.215 8.86103H211.093L213.913 18.5637L221.707 9.0646L230 8.86103L215.82 25.1871L213.83 32.76H206.366L208.937 24.2176L203.215 8.86103Z" fill="#49D232"/>
<path d="M229.411 40.7312L168.542 40.1639L132.43 39.9233L122.111 20.4199L139.759 2.0831L162.165 2.37678L229.226 1.59391L162.082 0H141.764H126.755L117.136 10.4533L111.993 0H110.75H97.1495H66.1902L4.51953 1.1208L66.079 2.24161H98.3105L107.516 20.0144L88.3132 39.727L36.5451 40.0521L4.53518 40.6193L36.6127 41.893H86.2028H101.142H101.959L112.574 30.1435L118.296 41.893H120.206L168.542 42L229.411 40.7312Z" fill="url(#paint0_linear_578_4926)"/>
<path d="M108.806 20.2244L98.7694 0.810226H111.79L117.219 11.6369L126.983 0.810226H139.714L121.135 20.6267L132.135 41.0369H118.343L112.803 29.3751L102.075 41.4883H88.1719L108.806 20.2244Z" fill="url(#paint1_radial_578_4926)"/>
<defs>
<linearGradient id="paint0_linear_578_4926" x1="4.51953" y1="21" x2="229.411" y2="21" gradientUnits="userSpaceOnUse">
<stop stop-color="#E5E52E"/>
<stop offset="0.55" stop-color="#AED13B"/>
<stop offset="0.98" stop-color="#E5E530"/>
</linearGradient>
<radialGradient id="paint1_radial_578_4926" cx="0" cy="0" r="1" gradientUnits="userSpaceOnUse" gradientTransform="translate(114.229 21.0643) scale(25.8368 25.7459)">
<stop stop-color="#E3FF86"/>
<stop offset="0.548077" stop-color="#E5E52E"/>
<stop offset="1" stop-color="#BBD764"/>
</radialGradient>
</defs>
</svg>
